# Blender 4.0.2
# www.blender.org
mtllib SausagePizza.mtl
o SausagePizza
v -0.000000 -0.025541 -0.027035
v -0.000000 0.025541 -0.027035
v 0.019117 -0.025541 -0.019117
v 0.019117 0.025541 -0.019117
v 0.027035 -0.025541 0.000000
v 0.027035 0.025541 0.000000
v 0.019117 -0.025541 0.019117
v 0.019117 0.025541 0.019117
v -0.000000 -0.025541 0.027035
v -0.000000 0.025541 0.027035
v -0.019117 -0.025541 0.019117
v -0.019117 0.025541 0.019117
v -0.027035 -0.025541 0.000000
v -0.027035 0.025541 0.000000
v -0.019117 -0.025541 -0.019117
v -0.019117 0.025541 -0.019117
v -0.000000 -0.025541 -0.033173
v 0.023457 -0.025541 -0.023457
v 0.023457 0.025541 -0.023457
v -0.000000 0.025541 -0.033173
v 0.033173 -0.025541 0.000000
v 0.033173 0.025541 0.000000
v 0.023457 -0.025541 0.023457
v 0.023457 0.025541 0.023457
v -0.000000 -0.025541 0.033173
v -0.000000 0.025541 0.033173
v -0.023457 -0.025541 0.023457
v -0.023457 0.025541 0.023457
v -0.033173 -0.025541 0.000000
v -0.033173 0.025541 0.000000
v -0.023457 -0.025541 -0.023457
v -0.023457 0.025541 -0.023457
vn -0.0000 -0.0000 -1.0000
vn 0.7071 -0.0000 -0.7071
vn 1.0000 -0.0000 -0.0000
vn 0.7071 -0.0000 0.7071
vn -0.0000 -0.0000 1.0000
vn -0.7071 -0.0000 0.7071
vn -1.0000 -0.0000 -0.0000
vn -0.0000 1.0000 -0.0000
vn -0.7071 -0.0000 -0.7071
vn -0.0000 -1.0000 -0.0000
vt 0.584124 0.092047
vt 0.584124 0.240755
vt 0.573268 0.240755
vt 0.573268 0.092047
vt 0.568772 0.240755
vt 0.568772 0.092047
vt 0.594980 0.240755
vt 0.594980 0.092047
vt 0.599477 0.240755
vt 0.599477 0.092047
vt 0.591780 0.088700
vt 0.594378 0.088700
vt 0.596976 0.088700
vt 0.598053 0.088700
vt 0.596976 0.088700
vt 0.590703 0.088700
vt 0.594378 0.021446
vt 0.591780 0.021446
vt 0.590703 0.021446
vt 0.591780 0.021446
vt 0.594378 0.021446
vt 0.596976 0.021446
vt 0.598053 0.021446
vt 0.575277 0.092047
vt 0.584124 0.092047
vt 0.575277 0.240755
vt 0.571612 0.092047
vt 0.571612 0.240755
vt 0.575277 0.092047
vt 0.584124 0.240755
vt 0.592971 0.092047
vt 0.592971 0.240755
vt 0.596636 0.092047
vt 0.596636 0.240755
vt 0.592971 0.240755
s 1
usemtl Material
f 17/1/1 20/2/1 19/3/2 18/4/2
f 18/4/2 19/3/2 22/5/3 21/6/3
f 21/6/3 22/5/3 24/3/4 23/4/4
f 23/4/4 24/3/4 26/2/5 25/1/5
f 25/1/5 26/2/5 28/7/6 27/8/6
f 27/8/6 28/7/6 30/9/7 29/10/7
f 4/11/8 2/12/8 16/13/8 14/14/8 12/15/8 10/12/8 8/11/8 6/16/8
f 29/10/7 30/9/7 32/7/9 31/8/9
f 31/8/9 32/7/9 20/2/1 17/1/1
f 1/17/10 3/18/10 5/19/10 7/20/10 9/21/10 11/22/10 13/23/10 15/22/10
f 3/24/10 1/25/10 17/1/10 18/4/10
f 2/2/8 4/26/8 19/3/8 20/2/8
f 5/27/10 3/24/10 18/4/10 21/6/10
f 4/26/8 6/28/8 22/5/8 19/3/8
f 7/29/10 5/27/10 21/6/10 23/4/10
f 6/28/8 8/26/8 24/3/8 22/5/8
f 9/1/10 7/29/10 23/4/10 25/1/10
f 8/26/8 10/30/8 26/2/8 24/3/8
f 11/31/10 9/1/10 25/1/10 27/8/10
f 10/30/8 12/32/8 28/7/8 26/2/8
f 13/33/10 11/31/10 27/8/10 29/10/10
f 12/32/8 14/34/8 30/9/8 28/7/8
f 15/31/10 13/33/10 29/10/10 31/8/10
f 14/34/8 16/35/8 32/7/8 30/9/8
f 1/25/10 15/31/10 31/8/10 17/1/10
f 16/35/8 2/2/8 20/2/8 32/7/8
