<?xml version="1.0" encoding="UTF-8" standalone="no"?>
<svg
   height="128"
   width="128"
   version="1.1"
   id="svg7"
   sodipodi:docname="icon.svg"
   inkscape:version="1.3.2 (091e20e, 2023-11-25, custom)"
   xml:space="preserve"
   xmlns:inkscape="http://www.inkscape.org/namespaces/inkscape"
   xmlns:sodipodi="http://sodipodi.sourceforge.net/DTD/sodipodi-0.dtd"
   xmlns="http://www.w3.org/2000/svg"
   xmlns:svg="http://www.w3.org/2000/svg"><defs
     id="defs7" /><sodipodi:namedview
     id="namedview7"
     pagecolor="#ffffff"
     bordercolor="#000000"
     borderopacity="0.25"
     inkscape:showpageshadow="2"
     inkscape:pageopacity="0.0"
     inkscape:pagecheckerboard="0"
     inkscape:deskcolor="#d1d1d1"
     inkscape:zoom="4"
     inkscape:cx="97.625"
     inkscape:cy="43.75"
     inkscape:window-width="3840"
     inkscape:window-height="2054"
     inkscape:window-x="-11"
     inkscape:window-y="-11"
     inkscape:window-maximized="1"
     inkscape:current-layer="layer1" /><rect
     x="2"
     y="2"
     width="124"
     height="124"
     rx="14"
     fill="#363d52"
     stroke="#212532"
     stroke-width="4"
     id="rect1" /><g
     inkscape:groupmode="layer"
     id="layer4"
     inkscape:label="Layer 3"><path
       style="fill:#784421"
       d="m 11.9375,109.0625 c 1.323942,6.87152 15.611622,13.34032 25.96967,12.21339 4.479536,-0.0715 9.178353,-0.19568 58.15533,0.28659 2.756152,-0.22704 18.19619,-9.39745 19.31028,-14.48428 0.98825,-1.89322 -2.15075,-3.76579 -3.94764,-4.476 -3.27423,-1.4931 -6.54065,-3.065378 -9.22048,-5.52902 C 99.108568,95.145716 95.285147,95.222645 91.759069,95 c -2.373728,-0.141665 -4.752958,0.08582 -6.545662,1.805435 -2.556841,1.915079 -5.228601,3.953255 -8.463095,4.633095 -4.701708,1.23046 -9.463063,2.44128 -14.312604,2.94037 -4.479905,0.0964 -9.376334,0.73062 -13.250208,-2.0664 -2.439872,-1.30446 -4.382538,-2.26216 -6.75,-3.125 -2.180517,-1.548969 -4.257998,-3.015119 -7.125,-2.5 -3.588888,-0.07314 -7.281592,1.611664 -9.875,3.625 -1.504634,0.78991 -2.921747,1.60849 -4.25,2.6875"
       id="path26"
       sodipodi:nodetypes="ccccccccccccccc" /><path
       style="fill:#ffffff;stroke-width:0.0883883"
       d="M 51.505391,61.351335 C 50.251228,61.033318 48.79704,59.968264 48.339146,59.032362 48.124562,58.593768 48.093762,58.41596 48.06009,57.421365 c -0.08793,-2.597219 0.759578,-4.149494 2.621245,-4.801012 0.701289,-0.245426 1.907481,-0.301743 2.868551,-0.13393 1.48932,0.26005 2.316233,0.885925 3.015176,2.282132 0.473222,0.945306 0.608895,1.561963 0.561546,2.55232 -0.03093,0.646894 -0.08407,0.861347 -0.35455,1.430908 -0.449635,0.946804 -1.37331,1.906593 -2.253501,2.341607 -0.61258,0.302753 -0.715999,0.325368 -1.600552,0.350009 -0.586181,0.01633 -1.123163,-0.01867 -1.412614,-0.09206 z m 3.386788,-2.474706 c 1.508189,-0.690472 2.159901,-2.418306 1.500096,-3.977093 -0.213847,-0.505212 -0.951838,-1.240809 -1.485275,-1.480456 -0.370852,-0.166606 -0.613635,-0.206821 -1.255273,-0.207925 -0.693972,-0.0012 -0.859823,0.03022 -1.29954,0.24615 -0.63701,0.312814 -1.23933,0.974415 -1.48851,1.635008 -0.254655,0.675105 -0.211628,1.711627 0.09797,2.360113 0.237933,0.498378 0.800591,1.101839 1.244253,1.334483 0.81151,0.425533 1.875168,0.461059 2.686279,0.08972 z"
       id="path15" /><path
       style="fill:#ffffff;stroke-width:0.0883883"
       d="m 72.406651,61.435283 c -0.79649,-0.229306 -1.416273,-0.609681 -2.10229,-1.290225 -0.726424,-0.720629 -1.129842,-1.422968 -1.307968,-2.277138 -0.471562,-2.261289 0.999983,-4.580093 3.343415,-5.268423 0.616025,-0.180943 1.926857,-0.183291 2.617037,-0.0047 2.20177,0.56977 3.59877,3.118873 2.994236,5.463577 -0.372704,1.445546 -1.505129,2.689638 -2.961502,3.253532 -0.610222,0.236273 -1.965846,0.301019 -2.582928,0.123365 z m 3.430551,-2.609109 c 2.216038,-1.084736 2.216038,-4.312575 0,-5.399604 -0.38019,-0.186494 -0.565444,-0.216652 -1.325825,-0.215834 -0.783219,8.43e-4 -0.934415,0.02752 -1.327576,0.234247 -1.759252,0.925023 -2.18333,3.270127 -0.849266,4.696349 0.67892,0.72582 1.235265,0.947508 2.309424,0.920241 0.591303,-0.01501 0.845418,-0.06514 1.193243,-0.235399 z"
       id="path16" /><path
       style="fill:#784421;stroke-width:0.125"
       d="M 59.3125,103.05594 C 57.658499,102.85616 56.421666,102.56075 54.375,101.87663 45.496653,98.908946 39.673489,93.65845 38.380206,87.454814 38.179767,86.493346 37.976682,84.394238 37.876648,82.25 37.83816,81.425 37.774833,80.393333 37.735921,79.957407 l -0.07075,-0.792592 0.959763,0.647641 c 1.333623,0.899919 1.351093,0.951123 1.412599,4.140089 l 0.04971,2.577545 3.456376,1.096618 c 7.430158,2.357397 9.587472,2.692919 17.371082,2.701685 9.083625,0.01023 16.154554,-0.920151 23.607666,-3.106255 l 2.022374,-0.593191 0.04013,-2.544475 c 0.04004,-2.538844 0.04082,-2.545031 0.351314,-2.79625 0.246508,-0.199446 0.437635,-0.239626 0.919574,-0.193318 0.334612,0.03215 0.65778,0.136452 0.71815,0.231777 0.244931,0.386757 0.02739,2.664079 -0.512089,5.360819 -0.496761,2.483196 -0.907417,3.855282 -1.564955,5.228829 -2.02865,4.237698 -5.705397,7.131307 -12.083892,9.510051 -3.702259,1.38069 -5.347099,1.64973 -10.412974,1.70321 -2.0625,0.0218 -4.171875,-0.0114 -4.6875,-0.0736 z"
       id="path18" /><path
       style="fill:#784421;stroke-width:0.0441942"
       d="m 16.475435,39.368927 c -0.07754,-0.02917 -0.302934,-0.641391 -0.395903,-1.07537 -0.107808,-0.503251 -0.107477,-1.544178 6.66e-4,-2.091723 0.303331,-1.535816 1.248708,-3.230552 2.756735,-4.941877 2.525073,-2.865478 5.992773,-4.59476 8.758927,-4.367926 0.281399,0.02308 0.667566,0.08191 0.85815,0.130743 1.801742,0.461657 4.525727,2.716495 6.06206,5.018002 0.178482,0.267375 0.506115,0.84845 0.728073,1.291279 0.390802,0.779688 0.512655,1.117303 0.403259,1.117303 -0.09551,0 -0.733165,-0.344817 -1.045626,-0.565433 -0.171392,-0.121013 -0.530366,-0.426127 -0.797719,-0.678033 -0.559149,-0.526841 -1.15385,-0.90339 -2.470388,-1.564186 -1.489008,-0.747362 -2.843313,-1.274178 -3.822796,-1.487044 -0.425401,-0.09245 -0.574432,-0.100845 -1.789864,-0.100827 -2.696274,4.1e-5 -3.929219,0.243137 -4.92765,0.971572 -0.675979,0.493181 -1.926043,1.884125 -2.551325,2.838858 -0.57422,0.876766 -0.987665,2.145591 -1.316085,4.03894 -0.210543,1.213788 -0.304827,1.520536 -0.450514,1.465722 z"
       id="path22" /><path
       style="fill:#784421;stroke-width:0.0441942"
       d="m 110.2695,41.425505 c -0.0125,-0.08148 -0.0326,-0.496176 -0.0447,-0.921545 -0.012,-0.425369 -0.0549,-0.962328 -0.0953,-1.193242 -0.22392,-1.280444 -0.83412,-2.764089 -1.64498,-3.999573 -0.46449,-0.707737 -0.81886,-1.147557 -1.35445,-1.681075 -1.0513,-1.047241 -1.7747,-1.404379 -3.20749,-1.583512 -0.98686,-0.123382 -1.95567,-0.171753 -2.9698,-0.148279 -0.84581,0.01958 -1.051435,0.03846 -1.449955,0.133163 -1.787802,0.424838 -4.755678,2.127083 -6.496206,3.725943 -0.547334,0.502785 -0.910553,0.7691 -1.048949,0.7691 -0.101626,0 -0.108772,-0.01231 -0.08341,-0.143631 0.0923,-0.477901 1.243113,-2.410729 2.164279,-3.634971 1.554501,-2.065952 3.325311,-3.363352 5.254965,-3.850097 0.367479,-0.09269 0.595598,-0.118551 1.211486,-0.137315 0.90422,-0.02755 1.39894,0.03958 2.18081,0.295905 1.43464,0.470331 3.01603,1.59274 4.77424,3.38857 1.70045,1.736845 2.80935,3.330212 3.15391,4.531834 0.22566,0.786983 0.30996,1.904016 0.20116,2.665394 -0.0369,0.258415 -0.46394,1.866462 -0.50876,1.915914 -0.008,0.0086 -0.0243,-0.0511 -0.0369,-0.132583 z"
       id="path23" /><path
       style="fill:#b3b3b3;stroke-width:0.0883883"
       d="m 34.224617,121.33641 -0.953945,-0.0295 0.246838,-0.24717 c 0.205904,-0.20617 0.369846,-0.67106 0.988578,-2.8033 1.36847,-4.71594 2.896907,-9.15287 4.793115,-13.91404 0.867531,-2.17827 1.22425,-2.9503 1.359437,-2.94215 0.123357,0.007 0.35172,0.63739 0.56182,1.54983 0.194683,0.84548 0.748034,2.08834 1.325219,2.97653 0.202918,0.31226 0.414219,0.71886 0.469557,0.90356 0.09512,0.31748 0.07617,0.38543 -0.346863,1.24422 -0.908689,1.84468 -2.752459,6.77818 -4.022818,10.76412 -0.668706,2.09817 -0.765205,2.33934 -0.956326,2.39007 -0.299951,0.0796 -2.331034,0.14281 -3.464612,0.10779 z"
       id="path27" /><path
       style="fill:#b3b3b3;stroke-width:0.0883883"
       d="m 88.477049,120.36283 c -0.828422,-2.21988 -1.72537,-4.43693 -2.377022,-5.87545 -0.672788,-1.48517 -0.937854,-2.2836 -0.937854,-2.82499 0,-0.84305 -0.722366,-2.54186 -1.474928,-3.46862 -0.233982,-0.28814 -0.66407,-0.70911 -0.955752,-0.93548 -0.291681,-0.22637 -0.541699,-0.47011 -0.555595,-0.54165 -0.0139,-0.0715 0.23744,-0.398 0.558522,-0.72547 1.253325,-1.27823 1.628772,-2.8832 1.085739,-4.64134 -0.263637,-0.85356 -0.191462,-1.07084 0.620753,-1.8688 0.831112,-0.816524 2.169556,-1.830127 2.517589,-1.906567 0.423571,-0.09303 0.678686,0.178502 1.05242,1.120158 0.460871,1.161207 2.10803,6.153889 3.073465,9.315939 2.87327,9.4107 3.993725,12.87695 4.243034,13.12626 0.0899,0.0899 0.355244,0.18933 0.589663,0.22096 0.234418,0.0316 0.46599,0.0711 0.514604,0.0878 0.04861,0.0166 -1.626667,0.0334 -3.722846,0.0373 l -3.811234,0.007 z"
       id="path28" /><path
       style="fill:#f9f9f9;stroke-width:0.0441942"
       d="m 46.381969,86.062431 c -0.766567,-0.07018 -1.213652,-0.306639 -1.432757,-0.757765 -0.156419,-0.322058 -0.22434,-0.940125 -0.166576,-1.515796 0.07824,-0.779743 0.16671,-0.847999 0.830271,-0.640582 0.239157,0.07476 0.604457,0.157476 0.811777,0.18382 0.20732,0.02634 0.440061,0.05673 0.517201,0.06752 0.176635,0.02471 0.388107,0.257949 0.465555,0.513483 0.03644,0.120245 0.0571,0.444218 0.0571,0.895512 0,0.63159 -0.01021,0.729191 -0.09556,0.913892 -0.150196,0.324999 -0.360162,0.39731 -0.98701,0.33992 z"
       id="path29" /><path
       style="fill:#f9f9f9;stroke-width:0.0441942"
       d="m 52.22344,87.437764 c -2.071436,-0.14707 -2.85603,-0.571673 -3.125108,-1.691229 -0.03635,-0.151252 -0.07863,-0.533965 -0.09395,-0.850473 -0.0467,-0.96477 -0.01301,-0.989847 1.399075,-1.041313 1.578633,-0.05754 2.345467,-0.134583 3.071077,-0.308561 0.511711,-0.122693 0.653312,-0.11432 0.788748,0.04663 0.15966,0.189746 0.184267,0.453173 0.181688,1.945 -0.0021,1.188427 -0.0099,1.323082 -0.08898,1.522568 -0.138275,0.348915 -0.261905,0.398481 -1.013619,0.406383 -0.340295,0.0036 -0.843813,-0.0095 -1.118928,-0.02901 z"
       id="path30" /><path
       style="fill:#f9f9f9;stroke-width:0.0441942"
       d="m 55.441591,86.358613 c 0,-1.682795 0.03515,-2.164464 0.182437,-2.500168 0.229577,-0.523255 0.743492,-0.782919 1.96098,-0.990818 0.415686,-0.07098 3.655758,-0.511784 3.761823,-0.511784 0.05119,0 0.06097,0.450066 0.06097,2.80633 v 2.80633 h -2.983106 -2.983107 z"
       id="path31" /><path
       style="fill:#f9f9f9;stroke-width:0.0441942"
       d="m 64.236232,85.211651 v -2.76742 h 3.005203 3.005204 l -0.0011,1.712524 c -0.0016,2.4311 -0.05866,2.874459 -0.413831,3.216426 -0.20881,0.20105 -0.466814,0.299548 -1.043309,0.398307 -0.760604,0.130298 -1.207237,0.158853 -2.8617,0.182956 l -1.690427,0.02463 z"
       id="path32" /><path
       style="fill:#f9f9f9;stroke-width:0.0441942"
       d="m 71.373422,87.471318 c -0.09048,-0.25644 -0.123472,-0.854754 -0.142551,-2.585359 l -0.02156,-1.955592 h 4.16313 4.16313 l -0.01672,1.248485 c -0.01794,1.339858 -0.03611,1.454691 -0.269758,1.705174 -0.233685,0.250524 -0.411928,0.301555 -2.041871,0.584588 -0.704898,0.122403 -1.967746,0.352506 -2.806331,0.511341 -1.289637,0.244268 -2.945756,0.546606 -2.994147,0.546606 -0.0076,0 -0.0226,-0.02486 -0.03332,-0.05524 z"
       id="path33" /></g><g
     inkscape:groupmode="layer"
     id="layer3"
     inkscape:label="Layer 2"><g
       inkscape:groupmode="layer"
       id="layer1"
       inkscape:label="Layer 1"><circle
         style="fill:#000000;stroke-width:0.689855"
         id="path12"
         cx="53.663925"
         cy="56.151817"
         r="2.9605966" /><circle
         style="fill:#000000;stroke-width:0.689855"
         id="path12-9"
         cx="74.52932"
         cy="56.124393"
         r="2.9605966" /><path
         style="display:inline;fill:#000000;stroke-width:0.696072"
         d="m 31.113184,120.13886 c 0.562942,-2.3151 2.442893,-8.47858 2.725644,-8.93607 0.312696,-0.50595 -4.706525,-3.88228 -8.637138,-5.81003 l -2.593495,-1.27197 -3.276167,1.72158 c -1.801893,0.94687 -4.111537,2.43661 -5.132536,3.31056 -1.020991,0.87392 -1.979774,1.58896 -2.130626,1.58896 -0.150846,0 -0.274267,-0.60868 -0.274267,-1.35262 0,-1.07881 0.446196,-1.67783 2.20423,-2.95913 1.212321,-0.88358 3.347939,-2.18183 4.745805,-2.885 1.397872,-0.70318 3.486089,-2.06123 4.640481,-3.01792 3.752532,-3.109854 5.481699,-3.702495 11.980512,-4.106131 L 40.14272,96.124385 38.727432,94.203313 C 36.564221,91.267018 35.861383,88.766895 35.583936,83.021361 l -0.251783,-5.214214 -1.983387,-1.16234 c -3.175509,-1.860974 -4.153997,-3.890552 -4.143918,-8.595319 0.0073,-3.447257 0.19247,-4.335087 1.468488,-7.044067 0.803024,-1.704812 2.302154,-4.013245 3.331401,-5.129849 1.364948,-1.480793 2.317516,-3.2627 3.520029,-6.584692 2.067981,-5.170022 3.518688,-10.164528 7.217544,-14.451391 3.186057,-3.548904 34.952856,-3.540922 38.092762,-0.658025 3.139907,2.882897 6.470763,7.319996 7.002159,12.617748 0.543448,5.418092 2.19714,10.380157 4.756335,14.271861 1.097345,1.668705 2.137975,3.631875 2.312515,4.362603 0.59324,2.483544 -0.58389,6.188282 -3.175625,9.994487 -2.378357,3.492837 -2.444574,3.68015 -2.755068,7.79312 -0.290504,3.848339 -1.007901,7.447626 -1.901207,9.538757 -0.305572,0.715308 -0.05067,0.812506 2.138984,0.815595 6.035186,0.0089 11.083855,1.544993 14.165845,4.311154 0.9776,0.877423 2.70641,2.065951 3.8418,2.641171 1.13539,0.57522 3.17139,1.7809 4.52447,2.67927 2.17408,1.44353 2.46012,1.81825 2.46012,3.22298 v 1.58954 l -1.9722,-1.60446 c -1.08472,-0.88245 -3.31272,-2.34333 -4.9511,-3.24642 l -2.9789,-1.64195 -2.82171,1.41844 c -4.165959,2.09419 -9.087475,5.37226 -9.078619,6.047 0.0044,0.32417 0.81756,3.19968 1.80735,6.39001 l 1.79964,5.80061 -1.16783,0.15229 c -0.6423,0.0838 -1.32933,-0.0207 -1.52673,-0.23203 -0.19741,-0.21137 -1.863359,-5.39604 -3.702112,-11.52146 -1.838741,-6.12544 -3.617682,-11.425011 -3.95319,-11.776831 -0.514579,-0.539629 -0.898924,-0.397128 -2.456952,0.910914 -1.619489,1.359647 -1.793471,1.691227 -1.412782,2.692507 0.563851,1.48305 0.113822,3.45635 -1.02288,4.48504 -0.892779,0.80798 -0.89249,0.82303 0.029,1.46845 1.138135,0.79717 2.31784,2.98987 2.31784,4.30812 0,0.53582 0.333274,1.61868 0.740621,2.40639 0.407337,0.78771 1.246178,2.77535 1.864089,4.41699 l 1.123478,2.98481 -1.219854,-0.14759 c -1.032736,-0.12497 -1.391779,-0.60628 -2.340697,-3.1378 -1.31205,-3.5003 -1.354587,-3.55839 -2.132924,-2.91243 -1.039848,0.863 -8.683991,2.06657 -10.984982,1.7296 -2.993646,-0.43843 -5.858587,-1.79293 -6.785992,-3.20834 -0.540151,-0.82436 -1.200828,-1.20352 -2.097145,-1.20352 -0.719711,0 -1.890212,-0.22114 -2.601119,-0.49143 -1.074262,-0.40843 -1.393439,-0.34966 -1.889988,0.34804 -2.840956,3.9918 -6.352603,5.8451 -11.18532,5.90314 -3.157563,0.0379 -3.481222,-0.0507 -4.499227,-1.23181 -1.237234,-1.43548 -1.199932,-1.46575 -2.283019,1.85272 -0.655484,2.00831 -0.983843,2.43625 -1.869323,2.43625 H 37.87866 l 0.839239,-2.66827 c 1.336306,-4.24865 3.709026,-10.46816 4.235633,-11.10267 0.347027,-0.41815 0.201604,-0.97684 -0.516931,-1.98592 -0.549889,-0.77226 -1.120738,-2.14938 -1.268563,-3.06029 -0.147818,-0.91089 -0.424751,-1.48714 -0.615398,-1.28053 -0.190653,0.2066 -1.28893,2.8815 -2.440615,5.94422 -1.784966,4.74681 -2.494708,6.93042 -4.336375,13.34137 -0.154347,0.53731 -0.696748,0.81209 -1.602999,0.81209 -1.260091,0 -1.34488,-0.10212 -1.059414,-1.27614 z m 6.444018,-18.32989 1.445853,-3.132321 h -3.078921 c -3.558479,0 -7.380597,1.014001 -9.659689,2.562681 l -1.590378,1.0807 3.189262,1.63394 c 1.754094,0.89868 4.024549,2.15575 5.04545,2.7935 l 1.856193,1.15952 0.673186,-1.48284 c 0.370254,-0.81557 1.323824,-2.8924 2.119044,-4.61518 z m 58.322819,2.49494 c 1.09752,-0.7334 3.30061,-2.00748 4.895779,-2.83131 1.59516,-0.82382 2.9003,-1.681996 2.9003,-1.907061 0,-1.303261 -7.503849,-3.673175 -11.630383,-3.673175 h -1.71492 l 1.430117,4.872506 c 0.78657,2.67987 1.586163,4.8725 1.776891,4.8725 0.190717,0 1.244726,-0.60005 2.342216,-1.33346 z m -23.924076,-1.9657 c 8.775081,-2.700287 13.622869,-6.584381 15.379147,-12.321925 0.53417,-1.745067 1.098654,-4.477989 1.25439,-6.073154 0.280536,-2.873391 0.272191,-2.900301 -0.899991,-2.900301 -1.135802,0 -1.183172,0.110699 -1.183172,2.764638 v 2.764643 l -3.132324,0.923271 C 77.49057,89.22957 69.109971,90.319923 61.648971,90.321923 53.653616,90.324145 50.955585,89.9421 44.625994,87.912019 L 40.101527,86.46089 v -2.887683 c 0,-2.609609 -0.118082,-2.96505 -1.226173,-3.691104 l -1.226179,-0.803419 0.229467,4.38686 c 0.176384,3.372179 0.50271,4.983723 1.410847,6.967344 2.477835,5.412305 8.874457,9.925732 17.285735,12.196712 3.760507,1.0153 11.618097,0.86644 15.380721,-0.29139 z M 61.447729,85.159474 v -2.844067 l -2.325891,0.308541 c -3.601531,0.47776 -3.70673,0.565997 -3.70673,3.10901 v 2.270592 h 3.01631 3.016311 z m 7.772806,2.551594 c 0.918829,-0.246233 1.044108,-0.579563 1.044108,-2.777948 v -2.498146 h -3.01631 -3.016315 v 2.784294 2.784282 l 1.972208,-0.0067 c 1.08471,-0.0033 2.442049,-0.132256 3.016309,-0.286147 z M 54.487008,85.397162 c 0,-1.995224 -0.0717,-2.123122 -1.044108,-1.862526 -0.574259,0.153896 -1.840414,0.282662 -2.813683,0.286146 -1.711751,0.0061 -1.764834,0.05503 -1.624172,1.496261 0.156804,1.606644 1.032079,2.085975 3.973812,2.176205 1.490401,0.04567 1.508151,0.021 1.508151,-2.096086 z m 19.351164,1.708441 c 1.224891,-0.238655 3.010152,-0.56135 3.967249,-0.717109 1.620422,-0.263701 1.740177,-0.393523 1.740177,-1.886331 v -1.603141 h -4.17643 -4.176431 v 2.320246 c 0,1.276125 0.09414,2.320229 0.209183,2.320229 0.115054,0 1.211367,-0.195251 2.436252,-0.433894 z M 47.526288,84.755216 c 0,-0.892416 -0.236238,-1.392146 -0.658114,-1.392146 -0.361964,0 -0.988429,-0.126752 -1.392144,-0.281671 -0.569596,-0.218575 -0.734029,0.03264 -0.734029,1.12145 0,1.404009 0.449857,1.839192 1.972208,1.907876 0.601094,0.02711 0.812079,-0.325073 0.812079,-1.355509 z M 58.780324,80.52643 c 3.598826,-0.844904 4.536992,-0.907892 6.78614,-0.455616 1.435482,0.288658 5.324644,0.641693 8.642588,0.784525 4.791331,0.206258 6.557788,0.104598 8.58488,-0.494083 1.403759,-0.414577 2.778492,-0.778859 3.054983,-0.809514 0.276503,-0.03066 0.526136,-0.281961 0.55475,-0.558457 0.02867,-0.276494 0.195884,-2.093536 0.371711,-4.037869 l 0.319695,-3.53515 -1.67396,-1.801402 c -1.229277,-1.322851 -1.677294,-1.585667 -1.686517,-0.989316 -0.0067,0.446646 -0.325796,0.812084 -0.70863,0.812084 -0.81235,0 -0.920504,-0.982093 -0.18875,-1.71385 0.691806,-0.6918 -4.086031,-2.478051 -7.468046,-2.792019 -2.150786,-0.199666 -11.050894,0.552549 -11.467555,0.96921 -0.073,0.073 -0.265315,2.099327 -0.427382,4.502963 -0.319468,4.738131 -1.057924,7.232829 -1.087591,3.674175 -0.0096,-1.148518 -0.147198,-3.462021 -0.305819,-5.141116 l -0.288418,-3.0529 -5.910104,-0.836816 c -7.506615,-1.062866 -10.109576,-0.786044 -13.101175,1.393292 -2.783647,2.027847 -4.071741,4.491518 -4.071741,7.787799 0,2.112063 0.19971,2.707186 1.266481,3.773957 1.33192,1.33192 3.279084,2.474388 5.227181,3.066973 2.394612,0.728407 9.336231,0.44881 13.577279,-0.54687 z M 81.87215,72.229819 c -0.862177,-0.532859 -0.214853,-1.860091 0.907225,-1.860091 0.615533,0 0.942651,0.304841 0.942651,0.878448 0,1.013703 -0.967386,1.527052 -1.849876,0.981643 z M 43.117835,71.761872 c -0.388429,-0.628488 0.1357,-1.392144 0.955485,-1.392144 0.367777,0 0.668681,0.417643 0.668681,0.928096 0,0.960721 -1.119521,1.280584 -1.624166,0.464048 z m 0.06474,-3.570317 c -0.522604,-0.522604 -0.318287,-1.070163 0.399322,-1.070163 0.38284,0 0.696072,0.196498 0.696072,0.436662 0,0.585153 -0.724652,1.004243 -1.095394,0.633501 z m 3.273564,0.02524 c -0.433069,-0.433069 0.09026,-1.095394 0.86553,-1.095394 0.367776,0 0.668682,0.313232 0.668682,0.696072 0,0.698962 -0.979603,0.953932 -1.534212,0.399322 z m 32.361039,-0.316332 c -0.371545,-0.96823 0.09267,-1.600447 0.716841,-0.976274 0.26359,0.263588 0.270424,0.7065 0.01722,1.116179 -0.356032,0.576071 -0.467475,0.55483 -0.734077,-0.139905 z m 14.379519,4.047139 c 1.687414,-3.446139 1.635804,-6.403444 -0.154869,-8.875407 -3.021825,-4.171507 -4.754495,-9.093993 -5.574313,-15.836535 -0.625333,-5.143066 -1.667626,-7.554991 -4.441107,-10.27695 0,0 -0.660753,-1.094487 -2.066651,-2.028269 -1.405898,-0.933782 -30.731718,-0.698795 -33.205128,0.740258 -2.47341,1.439053 -4.751673,4.703605 -7.584213,12.638133 -2.062684,5.777998 -2.816765,7.318609 -4.496965,9.187392 -3.58239,3.984479 -5.338844,10.929044 -3.605799,14.256399 0.462623,0.888203 1.562689,2.097022 2.444598,2.68626 l 1.603471,1.071345 0.575902,-2.823293 c 0.316748,-1.552811 0.9901,-3.492504 1.496346,-4.31043 2.131184,-3.443282 6.00449,-5.892566 9.33145,-5.900738 l 2.095086,-0.0051 -1.56422,-1.232484 c -3.014506,-2.375201 -3.659063,-6.131708 -1.597597,-9.310957 1.756259,-2.708553 3.521706,-3.548993 6.871553,-3.271197 2.440581,0.202392 2.87704,0.409449 4.475708,2.12331 1.201775,1.288362 1.868347,2.505209 2.072839,3.784022 l 0.30142,1.884975 h 3.189028 c 3.183332,0 3.189026,-0.0023 3.189026,-1.299256 0,-1.738865 2.145266,-4.957038 3.953584,-5.930882 1.067635,-0.574959 2.171417,-0.72746 4.104806,-0.567128 2.222149,0.184277 2.903443,0.470295 4.265953,1.790884 3.813662,3.696351 3.078452,9.150495 -1.553827,11.526995 l -1.675076,0.859367 2.419531,0.518897 c 8.193108,1.757106 12.229061,6.634306 10.818531,13.073516 l -0.453418,2.069886 1.782963,-2.047714 c 0.980621,-1.126243 2.32224,-3.149108 2.981388,-4.495257 z M 77.225358,47.340126 c -1.658965,-0.295168 -4.431023,-0.559209 -6.160114,-0.586757 -2.927011,-0.04663 -3.17502,-0.132175 -3.596374,-1.240417 -0.248908,-0.654682 -0.452565,-1.273056 -0.452565,-1.374167 0,-0.101109 1.082009,-0.505159 2.404469,-0.897887 3.923674,-1.165207 11.774904,-0.863035 12.287561,0.472913 0.124723,0.325021 -0.154258,1.394655 -0.619944,2.376966 l -0.84672,1.786018 z M 44.63127,45.809732 43.883745,43.906713 45.217926,43.216782 c 2.334194,-1.207059 12.049639,-0.6854 13.62036,0.731328 0.223781,0.201839 0.279473,0.874586 0.123762,1.494993 -0.27151,1.081765 -0.48796,1.140595 -5.279379,1.434893 -2.747939,0.168785 -5.74047,0.425652 -6.650062,0.570818 -1.586995,0.253272 -1.684007,0.187051 -2.401337,-1.639082 z m 10.61351,14.920682 c 2.166343,-1.754803 2.569361,-4.082223 1.118824,-6.461174 -0.643261,-1.05497 -1.378494,-1.571948 -2.547484,-1.791252 -3.637442,-0.682388 -5.825781,1.000657 -5.825781,4.4806 0,1.877451 0.204597,2.363641 1.427748,3.392857 1.692778,1.424379 4.324786,1.595564 5.826693,0.378969 z m 21.552229,-0.534045 c 2.549905,-2.549902 1.288292,-7.082971 -2.15083,-7.728156 -4.658622,-0.873961 -7.699384,4.446004 -4.41723,7.728156 1.910111,1.910112 4.657946,1.910112 6.56806,0 z M 96.932781,50.38682 c -1.75779,-0.511298 -3.865273,-2.546573 -5.866996,-5.665979 -1.399374,-2.180732 -1.543153,-2.731056 -1.543153,-5.906376 0,-3.175317 0.143779,-3.725643 1.543153,-5.906374 5.261556,-8.199427 11.427965,-8.855473 18.239365,-1.940498 3.16039,3.208451 4.36501,5.960752 3.91686,8.94922 -0.57545,3.837336 -4.75121,8.062302 -9.91135,10.02814 -2.6131,0.995497 -4.116459,1.099653 -6.377879,0.441867 z M 110.63538,36.95289 c -0.59696,-2.216875 -4.49279,-6.367716 -7.13991,-7.607243 -3.45243,-1.616617 -7.119429,-0.129469 -9.937574,4.030169 -2.090709,3.08591 -2.291504,4.090677 -0.467342,2.338498 0.845131,-0.811791 2.656497,-2.035341 4.025237,-2.719001 2.11029,-1.054045 2.937999,-1.214403 5.444509,-1.0548 2.49495,0.158866 3.18337,0.401963 4.41461,1.558882 1.78493,1.677202 3.15984,4.532673 3.22953,6.707214 l 0.0521,1.624168 0.43773,-1.516895 c 0.28686,-0.994082 0.26658,-2.152484 -0.0588,-3.360992 z M 24.360598,48.261055 c -3.994235,-1.398244 -8.627715,-4.968611 -10.105524,-7.786908 -0.928344,-1.770416 -0.908193,-5.294502 0.04079,-7.12959 1.254941,-2.42679 5.622535,-6.531545 8.252532,-7.755901 5.283909,-2.459841 9.769334,-0.800367 13.852534,5.12503 2.696763,3.913452 2.826129,7.403387 0.430311,11.609247 -3.371542,5.918772 -7.250132,7.765634 -12.470622,5.938122 z M 17.969196,34.360978 c 0.3868,-0.740912 1.351994,-1.963911 2.14489,-2.717776 1.219162,-1.159155 1.897387,-1.399684 4.395172,-1.558732 2.473972,-0.157531 3.413425,0.01831 5.785812,1.082978 1.557747,0.699075 3.079151,1.568522 3.380898,1.932103 0.301741,0.363581 0.942231,0.871709 1.423307,1.129172 0.842741,0.451022 0.841329,0.402738 -0.03877,-1.322325 -1.309952,-2.567716 -4.734911,-5.569816 -6.795339,-5.956354 -3.498353,-0.656296 -7.977332,1.841765 -10.78601,6.015689 -1.495456,2.222359 -1.895899,4.324089 -1.173439,6.158815 0.242261,0.615243 0.421096,0.260799 0.647452,-1.283211 0.171998,-1.173286 0.629199,-2.739448 1.015993,-3.480359 z"
         id="path7"
         sodipodi:nodetypes="csscsssssssscsscscssszzsscssscsscscsccscsccsssssssssscsssssssssssscssssssssccscsscsccsssssscssscsssscscscsscssscccsscccccsccccccccsscscsssscccsssssssssssssscscscssssscscssssssssssssssssssssssssssssssszzsssscssccssssscsssssscsscsssssssssscsscsssssssssssssssssssssssscssssssccsccsscsscsscssssscsssccc" /><path
         style="fill:#d38d5f;stroke-width:0.0883883"
         d="m 47.641319,81.396174 c -1.785304,-0.142096 -2.807126,-0.405875 -4.248301,-1.096676 -1.232784,-0.590913 -2.427296,-1.411347 -3.275763,-2.249913 -1.195911,-1.181956 -1.419318,-1.878275 -1.332206,-4.15224 0.103512,-2.702065 0.887002,-4.507647 2.72687,-6.28418 1.707383,-1.648608 3.297487,-2.516618 5.371818,-2.932385 0.584274,-0.117108 1.192315,-0.150255 2.657932,-0.144895 2.157662,0.0079 3.114391,0.105742 8.63436,0.883092 l 3.552032,0.500215 0.04939,0.318617 c 0.169634,1.09443 0.570983,6.626909 0.59058,8.140985 0.01218,0.941211 0.07562,1.339833 0.220918,1.388156 0.316485,0.105258 0.683516,-2.116453 0.959423,-5.807573 0.217529,-2.910151 0.328715,-3.892962 0.454662,-4.018908 0.347215,-0.347215 6.541028,-0.942083 9.978018,-0.958312 1.706571,-0.0081 1.948754,0.01082 3.005204,0.234263 2.224482,0.470486 4.295756,1.170295 5.2722,1.781285 0.551705,0.345219 0.672225,0.529448 0.485832,0.742649 -0.643475,0.736023 -0.498805,1.724048 0.252442,1.724048 0.400968,0 0.751234,-0.346041 0.751234,-0.742174 0,-0.648181 0.490354,-0.317169 2.081417,1.405053 0.835444,0.904314 1.188952,1.349749 1.188952,1.49813 0,0.293349 -0.607081,6.976283 -0.664825,7.318599 -0.02583,0.153109 -0.100864,0.323117 -0.166747,0.377795 -0.06588,0.05468 -0.790719,0.281214 -1.610748,0.503412 -0.820028,0.2222 -1.769385,0.479814 -2.10968,0.572476 -1.736986,0.472983 -3.921579,0.600878 -7.557204,0.442431 -4.025355,-0.175433 -7.478988,-0.47803 -9.265594,-0.811824 -1.266452,-0.236612 -2.803901,-0.309164 -3.734835,-0.176245 -0.409177,0.05842 -1.539454,0.279203 -2.511726,0.490625 -2.167131,0.471246 -3.620265,0.704297 -5.524271,0.885975 -1.407942,0.134344 -5.325121,0.23965 -6.231379,0.167519 z m 35.625812,-9.106111 c 0.487919,-0.319697 0.645112,-1.290554 0.269733,-1.665933 -0.680897,-0.680897 -2.087002,-0.05616 -2.087002,0.927255 0,0.762574 1.099013,1.209297 1.817269,0.738678 z M 44.331652,72.166465 c 0.501022,-0.268138 0.574044,-1.271044 0.120925,-1.660801 -0.639808,-0.550339 -1.720638,0.273844 -1.446887,1.103318 0.169491,0.513563 0.863119,0.80519 1.325962,0.557483 z m 3.295762,-3.719437 c 0.225035,-0.102533 0.411653,-0.415154 0.411653,-0.689599 0,-0.227883 -0.313087,-0.597158 -0.558522,-0.658759 -0.281922,-0.07076 -0.75118,0.07471 -1.002428,0.310741 -0.619609,0.582093 0.309011,1.420477 1.149297,1.037617 z m 31.880851,-0.259557 c 0.231592,-0.32524 0.319312,-0.873073 0.181139,-1.131253 -0.149272,-0.278918 -0.587082,-0.482661 -0.796418,-0.370628 -0.328491,0.175803 -0.303057,1.025912 0.04704,1.572311 0.173317,0.270496 0.340208,0.249811 0.568239,-0.07043 z M 44.06839,68.110021 c 0.498686,-0.498686 0.235654,-1.012071 -0.512735,-1.000758 -0.70827,0.01071 -0.930071,0.539908 -0.444376,1.06025 0.263239,0.282017 0.638956,0.258663 0.957111,-0.05949 z"
         id="path34" /></g><path
       style="fill:#000000;stroke-width:0.35377"
       d="m 63.504208,43.116938 c -4.538663,-0.311809 -10.116969,-2.41059 -13.97726,-5.2588 -0.987384,-0.728514 -2.429469,-2.12645 -2.95817,-2.867607 -1.052364,-1.475251 -1.283769,-2.442632 -0.813065,-3.399015 0.480586,-0.976462 1.866927,-2.070125 3.839394,-3.028842 1.007085,-0.489493 3.603926,-1.349714 3.669802,-1.28384 0.01779,0.01781 -0.141727,0.71061 -0.354523,1.539552 -0.436913,1.701957 -0.689158,1.915879 -0.265168,2.792628 0.953393,1.971506 4.212845,3.63616 8.314299,4.246248 1.564025,0.232646 4.944656,0.232646 6.508686,0 2.329901,-0.34657 4.621201,-1.102813 6.089277,-2.009764 1.376421,-0.850327 2.397948,-2.13057 2.542704,-3.186684 0.05019,-0.366222 -0.337237,-1.286521 -0.867177,-3.136795 -0.0448,-0.15644 0.151975,-0.264299 0.391501,-0.206143 0.563846,0.136892 2.955388,1.13024 3.823127,1.587966 0.494392,0.260787 1.234479,0.714634 1.644643,1.00855 1.783136,1.277766 2.202947,2.38034 1.467324,3.853732 -1.016649,2.036241 -2.778981,3.905056 -5.14629,5.457229 -2.111027,1.384137 -5.502618,2.767369 -8.152733,3.325025 -1.934269,0.407022 -4.46005,0.655618 -5.756367,0.56656 z M 62.69994,33.18426 c -2.910325,-0.251574 -4.919961,-0.746906 -6.85993,-1.690829 -0.572452,-0.278534 -1.326186,-0.723211 -1.67497,-0.988171 -0.679033,-0.515843 -1.305551,-1.251832 -1.305551,-1.533669 0,-0.09494 0.214944,-1.142642 0.477656,-2.328232 0.532829,-2.404606 1.374245,-5.067562 2.021894,-6.399002 0.489185,-1.005662 0.569838,-1.116307 0.961103,-1.318473 1.027608,-0.530965 5.666665,-0.831798 9.898593,-0.641897 3.718021,0.166843 5.646276,0.445896 6.114412,0.884885 0.633434,0.593993 2.196127,4.816646 2.75624,7.447813 0.160635,0.754593 0.527574,1.544212 0.570287,1.850099 l 0.07284,0.521679 -0.46507,0.560207 c -1.306938,1.574298 -4.353536,2.955152 -7.855107,3.455436 -0.969239,0.138479 -3.89886,0.250478 -4.712402,0.180154 z m 4.176169,-8.76749 c 0.528411,-0.26568 1.267863,-0.756313 1.832182,-1.215669 1.123186,-0.914272 2.353314,-1.756837 3.401808,-2.33004 0.879315,-0.480713 0.658117,-0.445725 -0.563215,0.08909 -1.134181,0.496649 -2.07183,1.015656 -3.220971,1.782867 -3.056445,2.040609 -4.244006,2.017123 -7.08008,-0.140012 -0.663774,-0.504871 -1.522008,-1.123677 -1.907185,-1.375123 -0.711226,-0.464292 -1.959529,-0.972526 -2.647062,-1.077725 -0.256964,-0.03932 -0.135447,0.02715 0.378481,0.207034 1.315873,0.460572 2.005702,0.901333 3.358997,2.146212 1.395957,1.28412 2.249439,1.871925 3.308965,2.278929 0.220727,0.08479 0.658966,0.120068 1.292996,0.104085 0.933717,-0.02354 0.982541,-0.03596 1.845084,-0.469644 z"
       id="path9"
       sodipodi:nodetypes="ssssscccsssssssssssssssssssssssscssssssssssssssss" /><path
       style="fill:#ffffff;stroke-width:0.0248941"
       d="m 63.783324,24.855301 c -0.285756,-0.03211 -0.564786,-0.130315 -1.033109,-0.363582 -0.80947,-0.403188 -1.433046,-0.864939 -2.651229,-1.963206 -1.486757,-1.340404 -2.00241,-1.672102 -3.386144,-2.178162 -0.471256,-0.172349 -0.54889,-0.208588 -0.397769,-0.185677 0.496282,0.07524 1.458293,0.432034 2.153346,0.798632 0.444953,0.234686 1.12841,0.707907 2.444976,1.692885 1.796121,1.343754 2.784907,1.735606 3.944925,1.56336 0.824392,-0.122411 1.621279,-0.500569 3.11967,-1.480423 1.426939,-0.933127 2.541044,-1.522248 3.902661,-2.063665 0.457961,-0.182099 0.418911,-0.147139 -0.283739,0.254015 -1.098321,0.627049 -2.068633,1.293499 -3.220615,2.212049 -1.106418,0.882219 -2.30034,1.566425 -2.925379,1.67646 -0.266423,0.0469 -1.363805,0.07146 -1.667594,0.03732 z"
       id="path10" /><path
       style="fill:#ffffff;stroke-width:0.0176028"
       d="m 62.725119,35.997305 c -1.199881,-0.05296 -1.898753,-0.136124 -2.961116,-0.352395 -2.838644,-0.577875 -5.261053,-1.722816 -6.478501,-3.062035 -0.426366,-0.469011 -0.726288,-0.962605 -0.853778,-1.405099 -0.0505,-0.175299 -0.05432,-0.521781 -0.0081,-0.733646 0.04548,-0.208311 0.371585,-1.363906 0.384945,-1.364075 0.0063,-7.9e-5 0.01986,0.02391 0.03011,0.0533 0.05439,0.156024 0.347854,0.534413 0.646799,0.833975 0.432058,0.43295 0.830758,0.725716 1.547991,1.136689 1.130242,0.647628 2.4277,1.1585 3.801389,1.496794 1.03334,0.254476 2.001322,0.410985 3.502964,0.566379 0.632331,0.06544 2.021325,0.05331 3.529368,-0.03081 0.925669,-0.05163 1.399045,-0.100545 2.036294,-0.210385 2.646632,-0.456184 4.994527,-1.390011 6.50433,-2.586963 0.290012,-0.229918 0.673176,-0.613561 0.964845,-0.96605 0.150714,-0.182143 0.259728,-0.29985 0.26629,-0.287528 0.02202,0.04134 0.279498,0.887964 0.330231,1.085835 0.07267,0.283431 0.08331,0.419426 0.047,0.60064 -0.08713,0.43482 -0.332866,0.94663 -0.67134,1.398263 -0.338834,0.452115 -0.811952,0.923149 -1.292331,1.28664 -1.356884,1.026724 -3.747051,1.911585 -6.31819,2.339052 -0.547391,0.091 -0.969258,0.134948 -1.787914,0.186225 -0.377053,0.02361 -2.774266,0.03493 -3.22132,0.0152 z"
       id="path11" /><path
       style="fill:#784421;stroke-width:0.125"
       d="m 88.613586,78 c 0.336153,-1.323789 0.573914,-2.978825 0.573914,-3.99496 0,-1.581669 -0.268233,-2.747526 -0.95618,-4.155981 C 86.670655,66.653864 83.138939,64.404551 77.875,63.253227 77.05,63.072784 76.267897,62.893262 76.136995,62.85429 c -0.179909,-0.05356 0.0032,-0.19711 0.75,-0.58809 1.758187,-0.920429 2.714737,-1.728765 3.479685,-2.94052 1.49844,-2.373683 1.2768,-5.470243 -0.567073,-7.922615 -1.221482,-1.624585 -2.562662,-2.473441 -4.277402,-2.707244 -2.076826,-0.283172 -3.881521,-0.127379 -4.959705,0.428158 -1.811486,0.933371 -3.736278,3.755327 -4.047601,5.934232 -0.11366,0.79549 -0.201882,1.05666 -0.393218,1.164076 -0.151375,0.08498 -1.338937,0.159339 -3.073769,0.19246 l -2.827087,0.05397 -0.150994,-1.032656 c -0.321366,-2.197835 -0.934815,-3.385063 -2.6403,-5.109856 -1.092405,-1.104773 -1.778962,-1.450752 -3.238752,-1.632114 -3.249323,-0.403689 -4.935458,0.02934 -6.565779,1.686215 -1.650056,1.676929 -2.549214,3.855035 -2.396451,5.805122 0.173996,2.221133 1.102923,3.766085 3.31967,5.521134 l 0.923218,0.730934 h -1.434473 c -1.82185,0 -2.98386,0.280187 -4.677816,1.127927 -2.03888,1.020359 -4.116338,2.924783 -5.213282,4.77906 -0.572704,0.968102 -1.239235,3.014785 -1.658611,5.093013 -0.187291,0.928125 -0.381912,1.735244 -0.43249,1.793597 -0.156546,0.180613 -1.885156,-1.086911 -2.788723,-2.044866 -1.657244,-1.756996 -2.109539,-3.5763 -1.646721,-6.623731 0.442459,-2.913374 1.727532,-5.988806 3.395039,-8.125 0.295164,-0.378125 0.879308,-1.109375 1.298098,-1.625 1.000505,-1.231846 1.977974,-3.244644 3.24763,-6.6875 2.219836,-6.019401 3.476957,-8.846853 4.890743,-11 0.616521,-0.938941 2.572969,-3.065915 2.814348,-3.059649 0.0604,0.0016 0.559358,0.405502 1.108792,0.897631 3.60216,3.226461 10.218645,5.920553 15.188529,6.184447 4.214454,0.223781 10.085039,-1.416101 13.859892,-3.871606 1.288435,-0.838115 2.846957,-2.174413 3.52057,-3.018586 0.304904,-0.382106 0.620934,-0.694737 0.702289,-0.694737 0.08136,0 0.418413,0.323437 0.749018,0.71875 0.330606,0.395312 0.933785,1.081142 1.340398,1.524065 2.152282,2.34447 2.966803,4.457422 3.693679,9.581782 0.434981,3.066552 0.616705,4.014107 1.200136,6.257822 0.828583,3.186503 2.08805,6.043593 3.814157,8.652378 1.667025,2.51949 1.940982,3.330723 1.840937,5.451297 -0.138971,2.945621 -1.836074,6.117333 -5.446024,10.178063 C 88.593017,78.201729 88.559581,78.212677 88.613586,78 Z M 80.845674,46.71875 c 0.682133,-1.456234 1.018428,-2.558635 0.911045,-2.986483 -0.104564,-0.416616 -0.829388,-0.728603 -2.328823,-1.002398 -1.658691,-0.302875 -5.885221,-0.300819 -7.865396,0.0038 -1.356868,0.208751 -4.417226,1.093747 -4.555413,1.317335 -0.116263,0.188119 0.562218,1.974283 0.854099,2.248491 0.358819,0.337094 1.365093,0.511288 2.959141,0.512254 1.696134,10e-4 4.842205,0.326371 7.179673,0.74247 1.1,0.195814 2.061826,0.362152 2.137391,0.36964 0.07557,0.0075 0.394291,-0.534824 0.708283,-1.205136 z M 47.625,47.441555 c 0.48125,-0.06227 2.05625,-0.202013 3.5,-0.31053 1.44375,-0.108517 3.4125,-0.256763 4.375,-0.329435 3.121894,-0.235714 3.450894,-0.403965 3.540461,-1.810595 0.06268,-0.984432 -0.07319,-1.180859 -1.07655,-1.556262 C 55.553319,42.532815 48.586056,42.192569 46.125,42.85658 c -0.487826,0.131619 -2.089633,0.844523 -2.28647,1.017621 -0.04892,0.04302 0.919975,2.46742 1.225115,3.065544 0.133194,0.261081 0.313987,0.503566 0.401762,0.538856 0.254028,0.102128 1.210914,0.08571 2.159593,-0.03705 z"
       id="path24" /></g><g
     inkscape:groupmode="layer"
     id="layer5"
     inkscape:label="Layer 4"
     transform="translate(92.277435,10.783378)"><path
       style="fill:#ffffff"
       d="m -67.683172,83.665715 1.722063,-1.025854 6.894104,-3.270795 2.835511,-1.063764 5.780116,0.532385 2.179256,2.581983 -4.114657,5.218406 -3.043431,1.477735 -6.458261,2.607481 -1.751536,0.55325 -2.345453,0.63916 -1.002748,-0.31666 -1.213854,-1.47773 -1.108301,-1.91754 -0.510171,-2.163827 0.316658,-1.002748 z"
       id="path14"
       sodipodi:nodetypes="ccccccccccccccccc" /><path
       style="fill:#000000;stroke-width:0.67754"
       d="m -66.025696,91.995492 0.686257,-0.19314 c 0.807513,-0.22727 1.7037,-0.49783 1.727361,-0.52149 0.02667,-0.0267 -0.08903,-0.95694 -0.18393,-1.47878 -0.384798,-2.115898 -1.282725,-3.892168 -2.606636,-5.156398 -0.32594,-0.31124 -0.765466,-0.66966 -1.101023,-0.89783 l -0.166721,-0.11337 -0.205389,0.12983 c -0.742145,0.46913 -1.65144,1.09733 -1.756235,1.21334 -0.06817,0.0755 -0.161157,0.23098 -0.206632,0.3456 -0.07357,0.18544 -0.08252,0.26506 -0.08119,0.72228 0.0017,0.57865 0.05865,0.88712 0.294587,1.59476 0.622617,1.867438 2.08243,3.889428 3.103408,4.298558 z m -0.5408,-0.40951 c -0.573677,-0.29025 -1.383771,-1.24634 -2.03661,-2.40363 -0.973578,-1.725878 -1.313061,-3.422868 -0.801336,-4.005688 0.141799,-0.16151 0.294782,-0.20845 0.505989,-0.15527 0.619918,0.1561 1.519288,1.19064 2.284748,2.62812 0.938282,1.762028 1.210175,3.747258 0.552568,4.034578 -0.10631,0.0465 -0.290216,0.0108 -0.505359,-0.0981 z m 5.519996,-1.15998 c 2.124415,-0.77629 3.501788,-1.33985 5.702211,-2.333078 l 0.155985,-0.0704 -0.02467,-0.69589 c -0.0232,-0.65443 -0.06633,-1.16007 -0.101984,-1.19573 -0.0087,-0.009 -0.237317,0.0401 -0.508094,0.10838 -0.874164,0.22045 -1.324199,0.27988 -2.140242,0.28267 -0.800101,0.003 -1.076286,-0.0366 -1.599485,-0.2275 -1.395619,-0.50934 -1.889479,-1.81934 -1.210533,-3.21103 0.35303,-0.72363 1.264825,-1.63183 2.33159,-2.3224 0.233898,-0.15141 0.455195,-0.29668 0.49177,-0.3228 0.06155,-0.04398 0.0293,-0.08322 -0.432967,-0.526819 -0.274707,-0.263617 -0.538582,-0.500241 -0.586389,-0.525825 -0.07752,-0.04147 -0.122689,-0.03205 -0.417572,0.08741 -1.383683,0.560447 -2.621137,1.116644 -3.980883,1.789274 -0.971123,0.48039 -2.594005,1.33369 -2.675341,1.40668 -0.0096,0.009 0.07016,0.0894 0.177196,0.17967 0.381106,0.32128 1.073514,1.02366 1.370258,1.38999 1.192176,1.47174 2.015047,3.30235 2.332197,5.188338 0.04621,0.2748 0.09388,0.6352 0.105924,0.80087 0.0279,0.38368 0.05094,0.532 0.08236,0.53 0.01373,-6.8e-4 0.431638,-0.15018 0.928672,-0.3318 z m 10.682437,-4.736588 c 2.138683,-1.06992 2.466234,-1.2381 4.414637,-2.26678 3.832936,-2.02362 7.246331,-4.085345 9.260718,-5.59357 0.866264,-0.648595 1.216032,-0.945642 1.818956,-1.544771 0.450852,-0.44801 0.506814,-0.517234 0.558166,-0.690427 0.225613,-0.760891 -0.341181,-1.924051 -1.132303,-2.323691 -0.210439,-0.106299 -0.210565,-0.106319 -0.93697,-0.118129 -0.753764,-0.01226 -1.262046,0.01965 -2.197227,0.137812 -0.572308,0.07232 -0.704482,0.09393 -1.842835,0.301241 -3.381918,0.615904 -8.744506,2.170865 -14.228814,4.125853 -0.448305,0.159804 -1.026563,0.364442 -1.285019,0.454737 -0.258455,0.0903 -0.465774,0.174372 -0.460708,0.186819 0.0051,0.01247 0.112869,0.108318 0.239564,0.213038 0.126695,0.104728 0.357935,0.311215 0.513867,0.458864 l 0.283513,0.268449 0.336672,-0.09908 c 0.438813,-0.129146 1.051384,-0.258515 1.554497,-0.328295 0.461519,-0.06403 1.389814,-0.07512 1.767896,-0.02114 1.287505,0.183809 2.13654,0.907002 2.280571,1.94254 0.09997,0.71874 -0.231257,1.58638 -0.888626,2.32776 -0.436989,0.49284 -1.086281,1.04249 -1.71973,1.45583 -0.214407,0.1399 -0.442183,0.28126 -0.506167,0.31415 -0.06399,0.0329 -0.108412,0.0726 -0.09873,0.0883 0.03487,0.0564 0.126466,1.07244 0.126466,1.40277 0,0.24728 0.01186,0.3373 0.0443,0.33625 0.02436,-6.8e-4 0.968151,-0.4636 2.097305,-1.02849 z m -7.069641,-0.28534 c 1.66507,-0.1478 3.823293,-1.00439 5.300828,-2.10388 0.155558,-0.11576 0.475255,-0.40249 0.710438,-0.63719 0.456495,-0.45555 0.704733,-0.80544 0.830225,-1.17019 0.09119,-0.26503 0.09333,-0.62204 0.0049,-0.81585 -0.135676,-0.297395 -0.492405,-0.543288 -0.979226,-0.674981 -0.290008,-0.07845 -1.115147,-0.106713 -1.578273,-0.05407 -2.498134,0.284058 -5.471298,1.838911 -6.484661,3.391221 -0.245854,0.37661 -0.329567,0.61233 -0.332011,0.93488 -0.0018,0.22941 0.0122,0.29173 0.101875,0.45526 0.200184,0.36509 0.673551,0.59795 1.374347,0.6761 0.380488,0.0424 0.561238,0.0422 1.051549,-10e-4 z m -15.237745,-0.71533 c 5.02e-4,-0.0155 -0.02662,-0.24678 -0.06028,-0.51386 -0.08803,-0.69859 -0.08674,-2.71326 0.0022,-3.46249 0.175743,-1.48009 0.486337,-2.832338 1.013484,-4.412477 0.228293,-0.684315 0.643031,-1.776781 0.891675,-2.348774 0.988856,-2.274813 1.899666,-4.065253 3.78077,-7.432119 1.334084,-2.387787 2.091973,-4.035889 2.664549,-5.794302 1.161138,-3.565914 1.214327,-6.804995 0.164692,-10.029273 -0.386755,-1.188039 -0.588743,-1.685238 -1.137387,-2.799697 -0.371795,-0.75522 -1.00757,-1.91088 -1.035751,-1.882701 -0.0067,0.0068 0.07443,0.225757 0.180334,0.486752 0.406705,1.002305 0.798299,2.275748 1.065529,3.465068 0.449201,1.999184 0.562481,4.377295 0.298992,6.276799 -0.203419,1.466468 -0.514034,2.533851 -1.253031,4.305855 -0.317007,0.760139 -0.443464,1.044814 -0.897329,2.020031 -0.423523,0.910025 -1.318066,2.679624 -2.445362,4.837446 -3.082438,5.900276 -4.153199,8.601784 -4.531679,11.433319 -0.08578,0.641773 -0.08625,2.004713 -8.81e-4,2.565143 0.12901,0.84685 0.357928,1.59458 0.699814,2.28582 0.194178,0.3926 0.597512,1.06489 0.599626,0.99946 z m -2.975502,-7.557472 c 0.002,-3.809489 0.39517,-6.237975 1.758472,-10.860323 0.349984,-1.186643 0.616118,-2.065074 0.810632,-2.675653 0.194197,-0.609589 0.559198,-1.853946 0.776967,-2.648836 1.271582,-4.64144 1.519798,-7.670708 0.854481,-10.428208 -0.239974,-0.994608 -0.563055,-1.859773 -1.055669,-2.826927 -0.176403,-0.346332 -0.326901,-0.623527 -0.33444,-0.615986 -0.0075,0.0075 0.03384,0.203188 0.09197,0.434778 0.731636,2.915393 0.543156,6.329274 -0.613163,11.105978 -0.355699,1.469375 -0.553498,2.208083 -1.285813,4.802004 -1.046399,3.706436 -1.475339,5.444949 -1.765297,7.154837 -0.471479,2.780312 -0.383618,4.832676 0.280076,6.542387 0.123676,0.3186 0.377372,0.828679 0.448584,0.901928 0.02004,0.0206 0.03292,-0.322909 0.03321,-0.885979 z"
       id="path13"
       sodipodi:nodetypes="cssssscssssscccssssccsscsscscssssscsssssscsssssssssssssssscssssssssscsscssscscssssccssssssssscssssssssssssssssscsssssss" /></g></svg>
