# Blender 4.0.2
# www.blender.org
mtllib MozzarellaWorld.mtl
o MozzarellaWorld
v -0.098411 0.397660 0.008769
v -0.098411 0.397660 -0.008769
v -0.112630 0.010545 0.052254
v -0.112630 0.010545 -0.052254
v 0.098411 0.397660 0.008769
v 0.098411 0.397660 -0.008769
v 0.112630 0.010545 0.052254
v 0.112630 0.010545 -0.052254
v -0.121291 0.245343 0.058746
v -0.121291 0.245343 -0.058746
v 0.121291 0.245343 -0.058746
v 0.121291 0.245343 0.058746
v -0.097161 0.410045 0.011447
v -0.097161 0.410045 -0.011447
v 0.097161 0.410045 -0.011447
v 0.097161 0.410045 0.011447
v -0.125145 0.111196 0.069671
v -0.125145 0.111196 -0.069671
v 0.125145 0.111196 0.069671
v 0.125145 0.111196 -0.069671
v -0.102508 0.365815 0.015312
v -0.102508 0.365815 -0.015312
v 0.102508 0.365815 -0.015312
v 0.102508 0.365815 0.015312
v 0.000000 0.000082 0.069671
v 0.000000 0.000082 -0.069671
v 0.000000 0.245343 0.088119
v -0.000000 0.245343 -0.088119
v 0.000000 0.412467 0.014278
v 0.000000 0.412467 -0.014278
v -0.000000 0.425791 0.016285
v 0.000000 0.425791 -0.016285
v 0.000000 0.111196 -0.104507
v 0.000000 0.111196 0.104507
v 0.000000 0.377686 -0.023671
v 0.000000 0.377686 0.023671
v -0.124663 0.178289 0.068306
v -0.139485 0.245343 -0.000000
v -0.123001 0.048341 -0.066688
v -0.120857 0.012923 0.000000
v -0.070336 0.000082 0.066688
v 0.070336 0.000082 -0.066688
v 0.120857 0.012923 0.000000
v 0.123001 0.048341 0.066688
v 0.124663 0.178289 -0.068306
v 0.139485 0.245343 -0.000000
v 0.069742 0.245343 0.084448
v -0.069742 0.245343 -0.084448
v -0.106369 0.395633 -0.000000
v 0.106369 0.395633 -0.000000
v 0.058003 0.406340 0.013683
v -0.058003 0.406340 -0.013683
v -0.093526 0.391019 0.007143
v -0.113555 0.310708 -0.036988
v 0.093526 0.391019 -0.007143
v 0.113555 0.310708 0.036988
v -0.101604 0.409694 -0.000000
v 0.101604 0.409694 -0.000000
v 0.056567 0.419598 0.015459
v -0.056567 0.419598 -0.015459
v -0.102413 0.403697 -0.012102
v 0.102413 0.403697 -0.012102
v 0.102413 0.403697 0.012102
v -0.102413 0.403697 0.012102
v -0.123001 0.048341 0.066688
v -0.124663 0.178289 -0.068306
v 0.124663 0.178289 0.068306
v 0.123001 0.048341 -0.066688
v 0.071958 0.111196 -0.100153
v -0.071958 0.111196 0.100153
v 0.143917 0.111196 0.000000
v -0.143917 0.111196 0.000000
v -0.113555 0.310708 0.036988
v -0.093526 0.391019 -0.007143
v 0.113555 0.310708 -0.036988
v 0.093526 0.391019 0.007143
v -0.060747 0.372150 -0.022684
v 0.060747 0.372150 0.022684
v 0.113642 0.364938 -0.000000
v -0.113642 0.364938 -0.000000
v 0.070336 0.000082 0.066688
v -0.070336 0.000082 -0.066688
v -0.069742 0.245343 0.084448
v 0.069742 0.245343 -0.084448
v -0.058003 0.406340 0.013683
v 0.058003 0.406340 -0.013683
v -0.056567 0.419598 0.015459
v 0.056567 0.419598 -0.015459
v -0.071958 0.111196 -0.100153
v 0.071958 0.111196 0.100153
v 0.060747 0.372150 -0.022684
v -0.060747 0.372150 0.022684
v 0.000000 0.403959 0.011860
v 0.000000 0.403959 -0.011860
v 0.000000 0.046891 0.100153
v 0.000000 0.046891 -0.100153
v 0.000000 0.419440 0.019233
v -0.000000 0.428596 -0.000000
v -0.000000 0.317271 -0.055481
v 0.000000 0.317271 0.055481
v -0.000000 0.178289 -0.102459
v 0.000000 0.178289 0.102459
v 0.000000 0.419440 -0.019233
v 0.000000 0.000082 0.000000
v -0.141020 0.047616 0.000000
v 0.071147 0.000082 0.000000
v 0.143363 0.178289 0.000000
v -0.057562 0.413372 -0.018395
v 0.071681 0.178289 0.098190
v -0.071681 0.178289 -0.098190
v -0.130588 0.310051 -0.000000
v 0.130588 0.310051 -0.000000
v -0.065294 0.314127 0.053170
v 0.065294 0.314127 -0.053170
v -0.057219 0.421972 -0.000000
v 0.109863 0.401507 -0.000000
v 0.057562 0.413372 0.018395
v -0.109863 0.401507 -0.000000
v -0.071553 0.047254 -0.095959
v 0.071553 0.047254 0.095959
v 0.141020 0.047616 0.000000
v -0.143363 0.178289 0.000000
v 0.058544 0.397861 -0.011366
v -0.058544 0.397861 0.011366
v 0.101565 0.389449 -0.000000
v -0.101565 0.389449 -0.000000
v 0.058544 0.397861 0.011366
v -0.058544 0.397861 -0.011366
v -0.071553 0.047254 0.095959
v 0.071553 0.047254 -0.095959
v -0.057562 0.413372 0.018395
v 0.057219 0.421972 -0.000000
v -0.065294 0.314127 -0.053170
v 0.065294 0.314127 0.053170
v 0.071681 0.178289 -0.098190
v -0.071681 0.178289 0.098190
v 0.057562 0.413372 -0.018395
v -0.071147 0.000082 0.000000
vn -0.7887 -0.0186 0.6145
vn -0.9998 -0.0178 -0.0000
vn -0.9728 -0.2317 -0.0000
vn -0.7617 -0.2565 0.5950
vn -0.7887 -0.0186 -0.6145
vn -0.7617 -0.2565 -0.5950
vn -0.5863 -0.7225 -0.3663
vn -0.6675 -0.7446 -0.0000
vn -0.5863 -0.7225 0.3663
vn -0.0000 -0.8712 0.4910
vn -0.0000 -1.0000 -0.0000
vn 0.1246 -0.9922 -0.0000
vn 0.1973 -0.8498 0.4888
vn -0.0000 -0.8712 -0.4910
vn 0.1973 -0.8498 -0.4888
vn 0.5863 -0.7225 -0.3663
vn 0.6675 -0.7446 -0.0000
vn 0.5863 -0.7225 0.3663
vn 0.7887 -0.0186 0.6145
vn 0.9998 -0.0178 -0.0000
vn 0.9991 0.0423 -0.0000
vn 0.7766 0.0751 0.6255
vn 0.7887 -0.0186 -0.6145
vn 0.7766 0.0751 -0.6255
vn 0.7338 0.2144 -0.6447
vn 0.9917 0.1288 -0.0000
vn 0.7338 0.2144 0.6447
vn -0.0000 -0.4344 -0.9007
vn 0.0045 -0.4172 -0.9088
vn -0.0634 -0.0764 -0.9951
vn -0.0000 -0.0482 -0.9988
vn -0.3368 -0.5055 -0.7944
vn -0.6062 0.0309 -0.7947
vn -0.3811 0.7319 -0.5649
vn -0.1669 0.7829 -0.5993
vn -0.0000 0.8074 -0.5900
vn -0.0000 -0.0183 0.9998
vn 0.2838 -0.0182 0.9587
vn 0.2740 0.1092 0.9555
vn -0.0000 0.1179 0.9930
vn 0.2403 0.2931 0.9254
vn -0.0000 0.3111 0.9504
vn -0.0000 -0.0183 -0.9998
vn -0.2838 -0.0182 -0.9587
vn -0.2740 0.1092 -0.9555
vn -0.0000 0.1179 -0.9930
vn -0.7766 0.0751 -0.6255
vn -0.7338 0.2144 -0.6447
vn -0.2403 0.2931 -0.9254
vn -0.0000 0.3111 -0.9504
vn -0.5594 0.4042 0.7237
vn -0.9180 0.3966 -0.0000
vn -0.9668 0.2554 -0.0000
vn -0.6596 0.3404 0.6701
vn -0.5594 0.4042 -0.7237
vn -0.6596 0.3404 -0.6701
vn -0.9917 0.1288 -0.0000
vn -0.7338 0.2144 0.6447
vn 0.5594 0.4042 -0.7237
vn 0.9180 0.3966 -0.0000
vn 0.9668 0.2554 -0.0000
vn 0.6596 0.3404 -0.6701
vn 0.5594 0.4042 0.7237
vn 0.6596 0.3404 0.6701
vn -0.0000 0.4366 0.8997
vn -0.1451 0.4266 0.8927
vn -0.1890 0.4248 0.8854
vn -0.0000 0.4417 0.8972
vn -0.2403 0.2931 0.9254
vn -0.0000 0.4366 -0.8997
vn 0.1451 0.4266 -0.8927
vn 0.1890 0.4248 -0.8854
vn -0.0000 0.4417 -0.8972
vn 0.2403 0.2931 -0.9254
vn -0.0000 0.8074 0.5900
vn -0.0000 1.0000 -0.0000
vn -0.1849 0.9828 -0.0000
vn -0.1669 0.7829 0.5993
vn -0.5564 0.8309 -0.0000
vn -0.3811 0.7319 0.5649
vn 0.3368 -0.5055 0.7944
vn 0.7451 -0.6669 -0.0000
vn 0.9989 -0.0459 -0.0000
vn 0.6062 0.0309 0.7947
vn 0.3368 -0.5055 -0.7944
vn 0.6062 0.0309 -0.7947
vn 0.3811 0.7319 -0.5649
vn 0.5564 0.8309 -0.0000
vn 0.3811 0.7319 0.5649
vn -0.0000 -0.4344 0.9007
vn -0.0045 -0.4172 0.9088
vn 0.0634 -0.0764 0.9951
vn -0.0000 -0.0482 0.9988
vn 0.1669 0.7829 0.5993
vn -0.7451 -0.6669 -0.0000
vn -0.9989 -0.0459 -0.0000
vn -0.3368 -0.5055 0.7944
vn -0.6062 0.0309 0.7947
vn -0.1973 -0.8498 -0.4888
vn -0.2618 -0.2876 -0.9213
vn -0.0000 -0.3095 -0.9509
vn 0.2618 -0.2876 0.9213
vn -0.0000 -0.3095 0.9509
vn 0.7617 -0.2565 0.5950
vn 0.9728 -0.2317 -0.0000
vn 0.7617 -0.2565 -0.5950
vn -0.9991 0.0423 -0.0000
vn -0.7766 0.0751 0.6255
vn -0.0045 -0.4172 -0.9088
vn 0.0265 -0.2689 -0.9628
vn -0.0000 -0.2692 -0.9631
vn 0.2759 -0.3821 -0.8820
vn 0.1180 0.4005 -0.9087
vn 0.4321 0.4114 -0.8025
vn -0.0000 0.4083 -0.9128
vn 0.0045 -0.4172 0.9088
vn -0.0265 -0.2689 0.9628
vn -0.0000 -0.2692 0.9631
vn -0.2759 -0.3821 0.8820
vn -0.1180 0.4005 0.9087
vn -0.4321 0.4114 0.8025
vn -0.0000 0.4083 0.9128
vn 0.7400 -0.6726 -0.0000
vn 0.2759 -0.3821 0.8820
vn 0.8747 0.4846 -0.0000
vn 0.4321 0.4114 0.8025
vn -0.7400 -0.6726 -0.0000
vn -0.2759 -0.3821 -0.8820
vn -0.8747 0.4846 -0.0000
vn -0.4321 0.4114 -0.8025
vn 0.0265 -0.2689 0.9628
vn 0.1180 0.4005 0.9087
vn 0.1451 0.4266 0.8927
vn -0.0265 -0.2689 -0.9628
vn -0.1180 0.4005 -0.9087
vn -0.1451 0.4266 -0.8927
vn -0.1973 -0.8498 0.4888
vn -0.2618 -0.2876 0.9213
vn -0.2838 -0.0182 0.9587
vn 0.2618 -0.2876 -0.9213
vn 0.2838 -0.0182 -0.9587
vn -0.0634 -0.0764 0.9951
vn 0.1849 0.9828 -0.0000
vn 0.1669 0.7829 -0.5993
vn -0.1890 0.4248 -0.8854
vn 0.1890 0.4248 0.8854
vn 0.2740 0.1092 -0.9555
vn -0.2740 0.1092 0.9555
vn 0.0634 -0.0764 -0.9951
vn -0.1246 -0.9922 -0.0000
vt 0.607529 0.324265
vt 0.609482 0.324265
vt 0.609181 0.288644
vt 0.607306 0.289050
vt 0.606228 0.267874
vt 0.607083 0.269207
vt 0.594511 0.262012
vt 0.587110 0.262012
vt 0.587194 0.262012
vt 0.582794 0.267874
vt 0.581939 0.269207
vt 0.581493 0.324265
vt 0.579540 0.324265
vt 0.579597 0.361856
vt 0.581543 0.361856
vt 0.581893 0.399423
vt 0.580001 0.399423
vt 0.594511 0.479811
vt 0.600545 0.479811
vt 0.600499 0.483695
vt 0.594511 0.483722
vt 0.604748 0.479458
vt 0.605165 0.483242
vt 0.604618 0.486146
vt 0.600395 0.486935
vt 0.594511 0.487075
vt 0.594511 0.324265
vt 0.587025 0.324265
vt 0.587054 0.361856
vt 0.594511 0.361856
vt 0.587256 0.399423
vt 0.594511 0.399423
vt 0.470976 0.074654
vt 0.481690 0.074654
vt 0.481648 0.128455
vt 0.470976 0.128455
vt 0.601997 0.324265
vt 0.607479 0.361856
vt 0.601968 0.361856
vt 0.607129 0.399423
vt 0.601766 0.399423
vt 0.481360 0.182224
vt 0.470976 0.182224
vt 0.605175 0.463079
vt 0.606333 0.463520
vt 0.608096 0.435484
vt 0.606324 0.435484
vt 0.609021 0.399423
vt 0.583847 0.463079
vt 0.582689 0.463520
vt 0.580926 0.435484
vt 0.582698 0.435484
vt 0.594511 0.462703
vt 0.600830 0.462703
vt 0.601303 0.435484
vt 0.594511 0.435484
vt 0.588192 0.462703
vt 0.587719 0.435484
vt 0.470976 0.233835
vt 0.461254 0.233835
vt 0.460592 0.182224
vt 0.594511 0.488297
vt 0.600463 0.488109
vt 0.605080 0.486387
vt 0.584274 0.479458
vt 0.583446 0.479189
vt 0.583082 0.482781
vt 0.583857 0.483242
vt 0.584403 0.486146
vt 0.583941 0.486387
vt 0.588477 0.479811
vt 0.588523 0.483695
vt 0.588627 0.486935
vt 0.605576 0.479189
vt 0.605940 0.482781
vt 0.601828 0.262012
vt 0.601954 0.288441
vt 0.594511 0.288238
vt 0.470976 0.023090
vt 0.481629 0.023380
vt 0.587067 0.288441
vt 0.581715 0.289050
vt 0.579841 0.288644
vt 0.609425 0.361856
vt 0.588477 0.479811
vt 0.588421 0.475334
vt 0.594511 0.475334
vt 0.584782 0.475334
vt 0.600545 0.479811
vt 0.600601 0.475334
vt 0.604240 0.475334
vt 0.583945 0.475334
vt 0.605077 0.475334
vt 0.460322 0.023380
vt 0.460262 0.074654
vt 0.588559 0.488109
vt 0.588627 0.486935
vt 0.480697 0.233835
vt 0.460303 0.128455
vt 0.601912 0.262012
s 1
usemtl Material
f 17/1/1 72/2/2 105/3/3 65/4/4
f 72/2/2 18/1/5 39/4/6 105/3/3
f 105/3/3 39/4/6 4/5/7 40/6/8
f 65/4/4 105/3/3 40/6/8 3/5/9
f 25/7/10 104/7/11 106/8/12 81/9/13
f 104/7/11 26/7/14 42/9/15 106/8/12
f 106/8/12 42/9/15 8/10/16 43/11/17
f 81/9/13 106/8/12 43/11/17 7/10/18
f 19/12/19 71/13/20 107/14/21 67/15/22
f 71/13/20 20/12/23 45/15/24 107/14/21
f 107/14/21 45/15/24 11/16/25 46/17/26
f 67/15/22 107/14/21 46/17/26 12/16/27
f 30/18/28 52/19/29 108/20/30 103/21/31
f 52/19/29 2/22/32 61/23/33 108/20/30
f 108/20/30 61/23/33 14/24/34 60/25/35
f 103/21/31 108/20/30 60/25/35 32/26/36
f 34/27/37 90/28/38 109/29/39 102/30/40
f 90/28/38 19/12/19 67/15/22 109/29/39
f 109/29/39 67/15/22 12/16/27 47/31/41
f 102/30/40 109/29/39 47/31/41 27/32/42
f 33/33/43 89/34/44 110/35/45 101/36/46
f 89/37/44 18/1/5 66/38/47 110/39/45
f 110/39/45 66/38/47 10/40/48 48/41/49
f 101/36/46 110/35/45 48/42/49 28/43/50
f 21/44/51 80/45/52 111/46/53 73/47/54
f 80/45/52 22/44/55 54/47/56 111/46/53
f 111/46/53 54/47/56 10/40/48 38/48/57
f 73/47/54 111/46/53 38/48/57 9/40/58
f 23/49/59 79/50/60 112/51/61 75/52/62
f 79/50/60 24/49/63 56/52/64 112/51/61
f 112/51/61 56/52/64 12/16/27 46/17/26
f 75/52/62 112/51/61 46/17/26 11/16/25
f 36/53/65 92/54/66 113/55/67 100/56/68
f 92/54/66 21/44/51 73/47/54 113/55/67
f 113/55/67 73/47/54 9/40/58 83/41/69
f 100/56/68 113/55/67 83/41/69 27/32/42
f 35/53/70 91/57/71 114/58/72 99/56/73
f 91/57/71 23/49/59 75/52/62 114/58/72
f 114/58/72 75/52/62 11/16/25 84/31/74
f 99/59/73 114/60/72 84/61/74 28/43/50
f 31/26/75 98/62/76 115/63/77 87/25/78
f 98/62/76 32/26/36 60/25/35 115/63/77
f 115/63/77 60/25/35 14/24/34 57/64/79
f 87/25/78 115/63/77 57/64/79 13/24/80
f 5/65/81 50/66/82 116/67/83 63/68/84
f 50/66/82 6/65/85 62/68/86 116/67/83
f 116/67/83 62/68/86 15/69/87 58/70/88
f 63/68/84 116/67/83 58/70/88 16/69/89
f 29/18/90 51/71/91 117/72/92 97/21/93
f 51/71/91 5/65/81 63/68/84 117/72/92
f 117/72/92 63/68/84 16/69/89 59/73/94
f 97/21/93 117/72/92 59/73/94 31/26/75
f 2/22/32 49/74/95 118/75/96 61/23/33
f 49/74/95 1/22/97 64/23/98 118/75/96
f 118/75/96 64/23/98 13/24/80 57/64/79
f 61/23/33 118/75/96 57/64/79 14/24/34
f 26/7/14 82/76/99 119/77/100 96/78/101
f 82/76/99 4/5/7 39/4/6 119/77/100
f 119/77/100 39/4/6 18/1/5 89/37/44
f 96/79/101 119/80/100 89/34/44 33/33/43
f 25/7/10 81/9/13 120/81/102 95/78/103
f 81/9/13 7/10/18 44/82/104 120/81/102
f 120/81/102 44/82/104 19/12/19 90/28/38
f 95/78/103 120/81/102 90/28/38 34/27/37
f 7/10/18 43/11/17 121/83/105 44/82/104
f 43/11/17 8/10/16 68/82/106 121/83/105
f 121/83/105 68/82/106 20/12/23 71/13/20
f 44/82/104 121/83/105 71/13/20 19/12/19
f 9/40/58 38/48/57 122/84/107 37/38/108
f 38/48/57 10/40/48 66/38/47 122/84/107
f 122/84/107 66/38/47 18/1/5 72/2/2
f 37/38/108 122/84/107 72/2/2 17/1/1
f 30/18/28 86/85/109 123/86/110 94/87/111
f 86/85/109 6/65/85 55/88/112 123/86/110
f 123/86/113 55/88/114 23/49/59 91/57/71
f 94/87/115 123/86/113 91/57/71 35/53/70
f 29/18/90 85/89/116 124/90/117 93/87/118
f 85/89/116 1/22/97 53/91/119 124/90/117
f 124/90/120 53/91/121 21/44/51 92/54/66
f 93/87/122 124/90/120 92/54/66 36/53/65
f 6/65/85 50/66/82 125/92/123 55/88/112
f 50/66/82 5/65/81 76/88/124 125/92/123
f 125/92/125 76/88/126 24/49/63 79/50/60
f 55/88/114 125/92/125 79/50/60 23/49/59
f 1/22/97 49/74/95 126/93/127 53/91/119
f 49/74/95 2/22/32 74/91/128 126/93/127
f 126/93/129 74/91/130 22/44/55 80/45/52
f 53/91/121 126/93/129 80/45/52 21/44/51
f 5/65/81 51/71/91 127/86/131 76/88/124
f 51/71/91 29/18/90 93/87/118 127/86/131
f 127/86/132 93/87/122 36/53/65 78/57/133
f 76/88/126 127/86/132 78/57/133 24/49/63
f 2/22/32 52/19/29 128/90/134 74/91/128
f 52/19/29 30/18/28 94/87/111 128/90/134
f 128/90/135 94/87/115 35/53/70 77/54/136
f 74/91/130 128/90/135 77/54/136 22/44/55
f 3/5/9 41/76/137 129/77/138 65/4/4
f 41/76/137 25/7/10 95/78/103 129/77/138
f 129/77/138 95/78/103 34/27/37 70/37/139
f 65/4/4 129/77/138 70/37/139 17/1/1
f 8/10/16 42/9/15 130/81/140 68/82/106
f 42/9/15 26/7/14 96/78/101 130/81/140
f 130/94/140 96/79/101 33/33/43 69/95/141
f 68/82/106 130/81/140 69/28/141 20/12/23
f 1/22/97 85/89/116 131/20/142 64/23/98
f 85/89/116 29/18/90 97/21/93 131/20/142
f 131/20/142 97/21/93 31/26/75 87/25/78
f 64/23/98 131/20/142 87/25/78 13/24/80
f 16/69/89 58/70/88 132/96/143 59/73/94
f 58/70/88 15/69/87 88/97/144 132/96/143
f 132/96/143 88/97/144 32/26/36 98/62/76
f 59/73/94 132/96/143 98/62/76 31/26/75
f 22/44/55 77/54/136 133/55/145 54/47/56
f 77/54/136 35/53/70 99/56/73 133/55/145
f 133/98/145 99/59/73 28/43/50 48/42/49
f 54/47/56 133/55/145 48/41/49 10/40/48
f 24/49/63 78/57/133 134/58/146 56/52/64
f 78/57/133 36/53/65 100/56/68 134/58/146
f 134/58/146 100/56/68 27/32/42 47/31/41
f 56/52/64 134/58/146 47/31/41 12/16/27
f 20/12/23 69/28/141 135/29/147 45/15/24
f 69/95/141 33/33/43 101/36/46 135/99/147
f 135/99/147 101/36/46 28/43/50 84/61/74
f 45/15/24 135/29/147 84/31/74 11/16/25
f 17/1/1 70/37/139 136/39/148 37/38/108
f 70/37/139 34/27/37 102/30/40 136/39/148
f 136/39/148 102/30/40 27/32/42 83/41/69
f 37/38/108 136/39/148 83/41/69 9/40/58
f 6/65/85 86/85/109 137/72/149 62/68/86
f 86/85/109 30/18/28 103/21/31 137/72/149
f 137/72/149 103/21/31 32/26/36 88/97/144
f 62/68/86 137/72/149 88/97/144 15/69/87
f 3/5/9 40/6/8 138/100/150 41/76/137
f 40/6/8 4/5/7 82/76/99 138/100/150
f 138/100/150 82/76/99 26/7/14 104/7/11
f 41/76/137 138/100/150 104/7/11 25/7/10
