# Blender 4.0.2
# www.blender.org
mtllib OlivesWorld.mtl
o OlivesWorld
v -0.052690 0.183042 0.010221
v -0.052690 0.183042 -0.010221
v -0.032224 0.182856 -0.018415
v -0.032224 0.182856 0.018415
v 0.006123 0.194023 -0.014816
v 0.006123 0.194023 0.014816
v 0.011666 0.196396 0.004951
v 0.011666 0.196396 -0.004951
v -0.002673 0.190577 0.021431
v -0.023207 0.184453 0.021419
v -0.010988 0.187737 0.023297
v -0.023207 0.184453 -0.021419
v -0.002673 0.190577 -0.021431
v -0.010988 0.187737 -0.023297
v 0.000075 0.192333 0.008160
v -0.023223 0.185472 -0.010608
v -0.023223 0.185472 0.010608
v 0.003329 0.193724 0.002378
v 0.003329 0.193724 -0.002378
v 0.000075 0.192333 -0.008160
v -0.005418 0.190187 0.012281
v -0.010608 0.188415 0.013446
v -0.018246 0.186355 0.012269
v -0.010608 0.188415 -0.013446
v -0.005418 0.190187 -0.012281
v -0.018246 0.186355 -0.012269
v -0.052690 0.183042 -0.000000
v -0.032224 0.182856 0.000000
v -0.026715 0.184457 0.000000
v 0.000000 0.185789 -0.072563
v 0.031484 0.185789 -0.065377
v 0.056732 0.185789 -0.045243
v 0.070744 0.185789 -0.016147
v 0.070744 0.185789 0.016147
v 0.056732 0.185789 0.045243
v 0.031484 0.185789 0.065377
v 0.000000 0.185789 0.072563
v -0.031484 0.185789 0.065377
v -0.056732 0.185789 0.045243
v -0.070744 0.185789 0.016147
v -0.070744 0.185789 -0.016147
v -0.056732 0.185789 -0.045243
v -0.031484 0.185789 -0.065377
v 0.034864 0.185789 -0.072395
v 0.000000 0.185789 -0.080352
v 0.062822 0.185789 -0.050099
v 0.078338 0.185789 -0.017880
v 0.078338 0.185789 0.017880
v 0.062822 0.185789 0.050099
v 0.034864 0.185789 0.072395
v 0.000000 0.185789 0.080352
v -0.034863 0.185789 0.072395
v -0.062822 0.185789 0.050099
v -0.078338 0.185789 0.017880
v -0.078338 0.185789 -0.017880
v -0.062822 0.185789 -0.050099
v -0.034863 0.185789 -0.072395
v 0.031484 0.182770 -0.065377
v 0.000000 0.182770 -0.072563
v 0.056732 0.182770 -0.045243
v 0.070744 0.182770 -0.016147
v 0.070744 0.182770 0.016147
v 0.056732 0.182770 0.045243
v 0.031484 0.182770 0.065377
v 0.000000 0.182770 0.072563
v -0.031484 0.182770 0.065377
v -0.056732 0.182770 0.045243
v -0.070744 0.182770 0.016147
v -0.070744 0.182770 -0.016147
v -0.056732 0.182770 -0.045243
v -0.031484 0.182770 -0.065377
v 0.000000 0.177671 -0.080352
v 0.034864 0.177671 -0.072395
v 0.062822 0.177671 -0.050099
v 0.078338 0.177671 -0.017880
v 0.078338 0.177671 0.017880
v 0.062822 0.177671 0.050099
v 0.034864 0.177671 0.072395
v 0.000000 0.177671 0.080352
v -0.034863 0.177671 0.072395
v -0.062822 0.177671 0.050099
v -0.078338 0.177671 0.017880
v -0.078338 0.177671 -0.017880
v -0.062822 0.177671 -0.050099
v -0.034863 0.177671 -0.072395
v 0.034864 0.094353 -0.072395
v 0.062822 0.094353 -0.050099
v 0.078338 0.094353 -0.017880
v 0.078338 0.094353 0.017880
v 0.062822 0.094353 0.050099
v 0.034864 0.094353 0.072395
v 0.000000 0.094353 0.080352
v -0.034863 0.094353 0.072395
v -0.062822 0.094353 0.050099
v -0.078338 0.094353 0.017880
v -0.078338 0.094353 -0.017880
v -0.062822 0.094353 -0.050099
v -0.034863 0.094353 -0.072395
v 0.000000 0.094353 -0.080352
v 0.000000 0.002916 -0.072563
v 0.031484 0.002916 -0.065377
v 0.056732 0.002916 -0.045243
v 0.070744 0.002916 -0.016147
v 0.070744 0.002916 0.016147
v 0.056732 0.002916 0.045243
v 0.031484 0.002916 0.065377
v 0.000000 0.002916 0.072563
v -0.031484 0.002916 0.065377
v -0.056732 0.002916 0.045243
v -0.070744 0.002916 0.016147
v -0.070744 0.002916 -0.016147
v -0.056732 0.002916 -0.045243
v -0.031484 0.002916 -0.065377
v 0.034864 0.002916 -0.072395
v 0.000000 0.002916 -0.080352
v 0.062822 0.002916 -0.050099
v 0.078338 0.002916 -0.017880
v 0.078338 0.002916 0.017880
v 0.062822 0.002916 0.050099
v 0.034864 0.002916 0.072395
v 0.000000 0.002916 0.080352
v -0.034863 0.002916 0.072395
v -0.062822 0.002916 0.050099
v -0.078338 0.002916 0.017880
v -0.078338 0.002916 -0.017880
v -0.062822 0.002916 -0.050099
v -0.034863 0.002916 -0.072395
v 0.031484 0.005936 -0.065377
v 0.000000 0.005936 -0.072563
v 0.056732 0.005936 -0.045243
v 0.070744 0.005936 -0.016147
v 0.070744 0.005936 0.016147
v 0.056732 0.005936 0.045243
v 0.031484 0.005936 0.065377
v 0.000000 0.005936 0.072563
v -0.031484 0.005936 0.065377
v -0.056732 0.005936 0.045243
v -0.070744 0.005936 0.016147
v -0.070744 0.005936 -0.016147
v -0.056732 0.005936 -0.045243
v -0.031484 0.005936 -0.065377
v 0.000000 0.011034 -0.080352
v 0.034864 0.011034 -0.072395
v 0.062822 0.011034 -0.050099
v 0.078338 0.011034 -0.017880
v 0.078338 0.011034 0.017880
v 0.062822 0.011034 0.050099
v 0.034864 0.011034 0.072395
v 0.000000 0.011034 0.080352
v -0.034863 0.011034 0.072395
v -0.062822 0.011034 0.050099
v -0.078338 0.011034 0.017880
v -0.078338 0.011034 -0.017880
v -0.062822 0.011034 -0.050099
v -0.034863 0.011034 -0.072395
v 0.000000 0.028616 -0.080352
v 0.034864 0.028616 -0.072395
v 0.062822 0.028616 -0.050099
v 0.078338 0.028616 -0.017880
v 0.078338 0.028616 0.017880
v 0.062822 0.028616 0.050099
v 0.034864 0.028616 0.072395
v 0.000000 0.028616 0.080352
v -0.034863 0.028616 0.072395
v -0.062822 0.028616 0.050099
v -0.078338 0.028616 0.017880
v -0.078338 0.028616 -0.017880
v -0.062822 0.028616 -0.050099
v -0.034863 0.028616 -0.072395
v 0.000000 0.162745 -0.080352
v 0.034864 0.162745 -0.072395
v 0.062822 0.162745 -0.050099
v 0.078338 0.162745 -0.017880
v 0.078338 0.162745 0.017880
v 0.062822 0.162745 0.050099
v 0.034864 0.162745 0.072395
v 0.000000 0.162745 0.080352
v -0.034863 0.162745 0.072395
v -0.062822 0.162745 0.050099
v -0.078338 0.162745 0.017880
v -0.078338 0.162745 -0.017880
v -0.062822 0.162745 -0.050099
v -0.034863 0.162745 -0.072395
vn -0.1364 0.9906 -0.0000
vn 0.0091 1.0000 -0.0000
vn -0.1442 0.9891 0.0307
vn -0.2791 0.9603 -0.0000
vn -0.2399 0.9696 -0.0484
vn -0.1442 0.9891 -0.0307
vn -0.3119 0.9498 0.0242
vn -0.3222 0.9452 0.0529
vn -0.3225 0.9451 0.0532
vn -0.3120 0.9498 0.0246
vn -0.3119 0.9498 -0.0242
vn -0.3120 0.9498 -0.0246
vn -0.3222 0.9452 -0.0529
vn -0.3225 0.9451 -0.0532
vn -0.3196 0.9459 0.0554
vn -0.2909 0.9552 0.0543
vn -0.2884 0.9560 0.0544
vn -0.3185 0.9463 0.0551
vn -0.2412 0.9679 0.0707
vn -0.2294 0.9702 0.0775
vn -0.2909 0.9552 -0.0543
vn -0.3196 0.9459 -0.0554
vn -0.3185 0.9463 -0.0551
vn -0.2884 0.9560 -0.0544
vn -0.2412 0.9679 -0.0707
vn -0.2294 0.9702 -0.0775
vn -0.2399 0.9696 0.0484
vn -0.0000 -0.0000 -1.0000
vn 0.4339 -0.0000 -0.9010
vn 0.7818 -0.0000 -0.6235
vn 0.9749 -0.0000 -0.2225
vn 0.9749 -0.0000 0.2225
vn 0.7818 -0.0000 0.6235
vn 0.4339 -0.0000 0.9010
vn -0.0000 -0.0000 1.0000
vn -0.4339 -0.0000 0.9010
vn -0.7818 -0.0000 0.6235
vn -0.9749 -0.0000 0.2225
vn -0.9749 -0.0000 -0.2225
vn -0.7818 -0.0000 -0.6235
vn -0.4339 -0.0000 -0.9010
vn -0.0000 1.0000 -0.0000
vn -0.0000 -1.0000 -0.0000
vt 0.345780 0.116200
vt 0.345780 0.045518
vt 0.350113 0.045518
vt 0.356459 0.116200
vt 0.345780 0.129488
vt 0.339628 0.137914
vt 0.335101 0.116200
vt 0.347159 0.201965
vt 0.350512 0.194117
vt 0.354371 0.208707
vt 0.348651 0.222078
vt 0.344401 0.201965
vt 0.342909 0.222078
vt 0.341048 0.194117
vt 0.337188 0.208707
vt 0.352901 0.180866
vt 0.353577 0.168346
vt 0.359290 0.167427
vt 0.358207 0.187486
vt 0.352894 0.149918
vt 0.358200 0.137952
vt 0.337983 0.168346
vt 0.338658 0.180866
vt 0.333352 0.187486
vt 0.332270 0.167427
vt 0.338665 0.149918
vt 0.333359 0.137952
vt 0.351931 0.137914
vt 0.341446 0.045518
vt 0.343466 0.009026
vt 0.343466 0.233686
vt 0.345078 0.233686
vt 0.345078 0.009026
vt 0.346370 0.233686
vt 0.346370 0.009026
vt 0.347087 0.233686
vt 0.347087 0.009026
vt 0.346370 0.009027
vt 0.345078 0.009027
vt 0.343466 0.009027
vt 0.341855 0.233686
vt 0.341855 0.009027
vt 0.340562 0.233686
vt 0.340562 0.009027
vt 0.339845 0.233686
vt 0.339845 0.009026
vt 0.340562 0.009026
vt 0.342011 0.233686
vt 0.343466 0.150123
vt 0.342011 0.150123
vt 0.341855 0.009026
vt 0.344921 0.233686
vt 0.346088 0.233686
vt 0.346736 0.233686
vt 0.340844 0.233686
vt 0.340196 0.233686
vt 0.344921 0.150122
vt 0.343466 0.150122
vt 0.342011 0.150122
vt 0.340844 0.150122
vt 0.340196 0.150122
vt 0.344921 0.150123
vt 0.346088 0.150122
vt 0.346736 0.150122
vt 0.976662 0.218204
vt 0.976662 0.238741
vt 0.970629 0.238741
vt 0.970629 0.218204
vt 0.981500 0.218204
vt 0.981500 0.238741
vt 0.984184 0.218204
vt 0.984184 0.238741
vt 0.970629 0.218204
vt 0.970629 0.238741
vt 0.964596 0.218204
vt 0.964596 0.238741
vt 0.959759 0.218204
vt 0.959758 0.238741
vt 0.957074 0.218204
vt 0.957074 0.238741
vt 0.341855 0.233687
vt 0.343466 0.233687
vt 0.340562 0.233687
vt 0.339845 0.009027
vt 0.347087 0.009027
vt 0.346370 0.233687
vt 0.344921 0.150124
vt 0.343466 0.150124
vt 0.345078 0.233687
vt 0.342011 0.233687
vt 0.340844 0.233687
vt 0.346088 0.233687
vt 0.344921 0.233687
vt 0.342011 0.150124
vt 0.340844 0.150124
vt 0.340196 0.150124
vt 0.346088 0.150124
vt 0.346736 0.150124
vt 0.976662 0.033650
vt 0.970629 0.033650
vt 0.970629 0.009459
vt 0.976662 0.009459
vt 0.981500 0.033650
vt 0.981500 0.009459
vt 0.984184 0.033650
vt 0.984184 0.009459
vt 0.981500 0.033650
vt 0.981500 0.009459
vt 0.976662 0.033650
vt 0.976662 0.009459
vt 0.970629 0.033650
vt 0.970629 0.009459
vt 0.964596 0.033650
vt 0.964596 0.009459
vt 0.959759 0.033650
vt 0.959758 0.009459
vt 0.957074 0.033650
vt 0.957074 0.009459
vt 0.959759 0.033650
vt 0.959758 0.009459
vt 0.964596 0.033650
vt 0.964596 0.009459
vt 0.469191 0.123600
vt 0.466709 0.123600
vt 0.466709 0.022417
vt 0.469191 0.022417
vt 0.464718 0.123600
vt 0.464718 0.022417
vt 0.463614 0.123600
vt 0.463614 0.022417
vt 0.471673 0.123600
vt 0.471673 0.022417
vt 0.473663 0.123600
vt 0.473663 0.022417
vt 0.474768 0.123600
vt 0.474768 0.022417
vt 0.469191 0.228871
vt 0.466709 0.228871
vt 0.464718 0.228871
vt 0.463614 0.228871
vt 0.471673 0.228871
vt 0.473663 0.228871
vt 0.474768 0.228871
s 1
usemtl Material
f 28/1/1 27/2/2 1/3/2 4/4/3
f 29/5/4 16/6/5 3/7/6 28/1/1
f 18/8/7 15/9/8 6/10/9 7/11/10
f 19/12/11 18/8/7 7/11/10 8/13/12
f 20/14/13 19/12/11 8/13/12 5/15/14
f 21/16/15 22/17/16 11/18/17 9/19/18
f 22/17/16 23/20/19 10/21/20 11/18/17
f 24/22/21 25/23/22 13/24/23 14/25/24
f 26/26/25 24/22/21 14/25/24 12/27/26
f 15/9/8 21/16/15 9/19/18 6/10/9
f 16/6/5 26/26/25 12/27/26 3/7/6
f 23/20/19 17/28/27 4/4/3 10/21/20
f 25/23/22 20/14/13 5/15/14 13/24/23
f 17/28/27 29/5/4 28/1/1 4/4/3
f 3/7/6 2/29/2 27/2/2 28/1/1
f 72/30/28 45/31/28 44/32/29 73/33/29
f 73/33/29 44/32/29 46/34/30 74/35/30
f 74/35/30 46/34/30 47/36/31 75/37/31
f 75/37/31 47/36/31 48/36/32 76/37/32
f 76/37/32 48/36/32 49/34/33 77/38/33
f 77/38/33 49/34/33 50/32/34 78/39/34
f 78/39/34 50/32/34 51/31/35 79/40/35
f 79/40/35 51/31/35 52/41/36 80/42/36
f 80/42/36 52/41/36 53/43/37 81/44/37
f 81/44/37 53/43/37 54/45/38 82/46/38
f 82/46/38 54/45/38 55/45/39 83/46/39
f 83/46/39 55/45/39 56/43/40 84/47/40
f 38/48/29 37/31/28 65/49/28 66/50/29
f 84/47/40 56/43/40 57/41/41 85/51/41
f 85/51/41 57/41/41 45/31/28 72/30/28
f 30/31/42 31/52/42 44/32/42 45/31/42
f 31/52/42 32/53/42 46/34/42 44/32/42
f 32/53/42 33/54/42 47/36/42 46/34/42
f 33/54/42 34/54/42 48/36/42 47/36/42
f 34/54/42 35/53/42 49/34/42 48/36/42
f 35/53/42 36/52/42 50/32/42 49/34/42
f 36/52/42 37/31/42 51/31/42 50/32/42
f 37/31/42 38/48/42 52/41/42 51/31/42
f 38/48/42 39/55/42 53/43/42 52/41/42
f 39/55/42 40/56/42 54/45/42 53/43/42
f 40/56/42 41/56/42 55/45/42 54/45/42
f 41/56/42 42/55/42 56/43/42 55/45/42
f 42/55/42 43/48/42 57/41/42 56/43/42
f 43/48/42 30/31/42 45/31/42 57/41/42
f 58/57/42 59/58/42 71/59/42 70/60/42 69/61/42 68/61/42 67/60/42 66/50/42 65/49/42 64/62/42 63/63/42 62/64/42 61/64/42 60/63/42
f 31/52/36 30/31/35 59/58/35 58/57/36
f 39/55/30 38/48/29 66/50/29 67/60/30
f 32/53/37 31/52/36 58/57/36 60/63/37
f 40/56/31 39/55/30 67/60/30 68/61/31
f 33/54/38 32/53/37 60/63/37 61/64/38
f 41/56/32 40/56/31 68/61/31 69/61/32
f 34/54/39 33/54/38 61/64/38 62/64/39
f 42/55/33 41/56/32 69/61/32 70/60/33
f 35/53/40 34/54/39 62/64/39 63/63/40
f 43/48/34 42/55/33 70/60/33 71/59/34
f 36/52/41 35/53/40 63/63/40 64/62/41
f 30/31/35 43/48/34 71/59/34 59/58/35
f 37/31/28 36/52/41 64/62/41 65/49/28
f 183/65/41 85/66/41 72/67/28 170/68/28
f 182/69/40 84/70/40 85/66/41 183/65/41
f 181/71/39 83/72/39 84/70/40 182/69/40
f 180/71/38 82/72/38 83/72/39 181/71/39
f 179/69/37 81/70/37 82/72/38 180/71/38
f 178/65/36 80/66/36 81/70/37 179/69/37
f 177/73/35 79/74/35 80/66/36 178/65/36
f 176/75/34 78/76/34 79/74/35 177/73/35
f 175/77/33 77/78/33 78/76/34 176/75/34
f 174/79/32 76/80/32 77/78/33 175/77/33
f 173/79/31 75/80/31 76/80/32 174/79/32
f 172/77/30 74/78/30 75/80/31 173/79/31
f 171/75/29 73/76/29 74/78/30 172/77/30
f 170/68/28 72/67/28 73/76/29 171/75/29
f 142/40/28 143/42/29 114/81/29 115/82/28
f 143/42/29 144/44/30 116/83/30 114/81/29
f 144/44/30 145/84/31 117/45/31 116/83/30
f 145/84/31 146/84/32 118/45/32 117/45/31
f 146/84/32 147/44/33 119/43/33 118/45/32
f 147/44/33 148/42/34 120/41/34 119/43/33
f 148/42/34 149/40/35 121/31/35 120/41/34
f 149/40/35 150/39/36 122/32/36 121/31/35
f 150/39/36 151/38/37 123/34/37 122/32/36
f 151/38/37 152/85/38 124/36/38 123/34/37
f 152/85/38 153/85/39 125/36/39 124/36/38
f 153/85/39 154/38/40 126/86/40 125/36/39
f 108/52/29 136/87/29 135/88/28 107/31/28
f 154/38/40 155/39/41 127/89/41 126/86/40
f 155/39/41 142/40/28 115/82/28 127/89/41
f 100/82/43 115/82/43 114/81/43 101/90/43
f 101/90/43 114/81/43 116/83/43 102/91/43
f 102/91/43 116/83/43 117/45/43 103/56/43
f 103/56/43 117/45/43 118/45/43 104/56/43
f 104/56/43 118/45/43 119/43/43 105/55/43
f 105/55/43 119/43/43 120/41/43 106/48/43
f 106/48/43 120/41/43 121/31/43 107/31/43
f 107/31/43 121/31/43 122/32/43 108/52/43
f 108/52/43 122/32/43 123/34/43 109/53/43
f 109/53/43 123/34/43 124/36/43 110/54/43
f 110/54/43 124/36/43 125/36/43 111/54/43
f 111/54/43 125/36/43 126/86/43 112/92/43
f 112/92/43 126/86/43 127/89/43 113/93/43
f 113/93/43 127/89/43 115/82/43 100/82/43
f 128/94/43 130/95/43 131/96/43 132/96/43 133/95/43 134/94/43 135/88/43 136/87/43 137/97/43 138/98/43 139/98/43 140/97/43 141/87/43 129/88/43
f 101/90/36 128/94/36 129/88/35 100/82/35
f 109/53/30 137/97/30 136/87/29 108/52/29
f 102/91/37 130/95/37 128/94/36 101/90/36
f 110/54/31 138/98/31 137/97/30 109/53/30
f 103/56/38 131/96/38 130/95/37 102/91/37
f 111/54/32 139/98/32 138/98/31 110/54/31
f 104/56/39 132/96/39 131/96/38 103/56/38
f 112/92/33 140/97/33 139/98/32 111/54/32
f 105/55/40 133/95/40 132/96/39 104/56/39
f 113/93/34 141/87/34 140/97/33 112/92/33
f 106/48/41 134/94/41 133/95/40 105/55/40
f 100/82/35 129/88/35 141/87/34 113/93/34
f 107/31/28 135/88/28 134/94/41 106/48/41
f 169/99/41 156/100/28 142/101/28 155/102/41
f 168/103/40 169/99/41 155/102/41 154/104/40
f 167/105/39 168/103/40 154/104/40 153/106/39
f 166/105/38 167/105/39 153/106/39 152/106/38
f 165/107/37 166/105/38 152/106/38 151/108/37
f 164/109/36 165/107/37 151/108/37 150/110/36
f 163/111/35 164/109/36 150/110/36 149/112/35
f 162/113/34 163/111/35 149/112/35 148/114/34
f 161/115/33 162/113/34 148/114/34 147/116/33
f 160/117/32 161/115/33 147/116/33 146/118/32
f 159/117/31 160/117/32 146/118/32 145/118/31
f 158/119/30 159/117/31 145/118/31 144/120/30
f 157/121/29 158/119/30 144/120/30 143/122/29
f 156/100/28 157/121/29 143/122/29 142/101/28
f 99/123/28 86/124/29 157/125/29 156/126/28
f 86/124/29 87/127/30 158/128/30 157/125/29
f 87/127/30 88/129/31 159/130/31 158/128/30
f 88/129/31 89/129/32 160/130/32 159/130/31
f 89/129/32 90/127/33 161/128/33 160/130/32
f 90/127/33 91/124/34 162/125/34 161/128/33
f 91/124/34 92/123/35 163/126/35 162/125/34
f 92/123/35 93/131/36 164/132/36 163/126/35
f 93/131/36 94/133/37 165/134/37 164/132/36
f 94/133/37 95/135/38 166/136/38 165/134/37
f 95/135/38 96/135/39 167/136/39 166/136/38
f 96/135/39 97/133/40 168/134/40 167/136/39
f 97/133/40 98/131/41 169/132/41 168/134/40
f 98/131/41 99/123/28 156/126/28 169/132/41
f 99/123/28 170/137/28 171/138/29 86/124/29
f 86/124/29 171/138/29 172/139/30 87/127/30
f 87/127/30 172/139/30 173/140/31 88/129/31
f 88/129/31 173/140/31 174/140/32 89/129/32
f 89/129/32 174/140/32 175/139/33 90/127/33
f 90/127/33 175/139/33 176/138/34 91/124/34
f 91/124/34 176/138/34 177/137/35 92/123/35
f 92/123/35 177/137/35 178/141/36 93/131/36
f 93/131/36 178/141/36 179/142/37 94/133/37
f 94/133/37 179/142/37 180/143/38 95/135/38
f 95/135/38 180/143/38 181/143/39 96/135/39
f 96/135/39 181/143/39 182/142/40 97/133/40
f 97/133/40 182/142/40 183/141/41 98/131/41
f 98/131/41 183/141/41 170/137/28 99/123/28
