# Blender 4.0.2
# www.blender.org
mtllib SalamiPizza.mtl
o SalamiPizza
v 0.000000 -0.003238 -0.065056
v 0.000000 0.003238 -0.065056
v 0.046002 -0.003238 -0.046002
v 0.046002 0.003238 -0.046002
v 0.065056 -0.003238 0.000000
v 0.065056 0.003238 0.000000
v 0.046002 -0.003238 0.046002
v 0.046002 0.003238 0.046002
v 0.000000 -0.003238 0.065056
v 0.000000 0.003238 0.065056
v -0.046002 -0.003238 0.046002
v -0.046002 0.003238 0.046002
v -0.065056 -0.003238 0.000000
v -0.065056 0.003238 0.000000
v -0.046002 -0.003238 -0.046002
v -0.046002 0.003238 -0.046002
v 0.000000 -0.003238 -0.069260
v 0.048975 -0.003238 -0.048975
v 0.048975 0.003238 -0.048975
v 0.000000 0.003238 -0.069260
v 0.069260 -0.003238 0.000000
v 0.069260 0.003238 0.000000
v 0.048975 -0.003238 0.048975
v 0.048975 0.003238 0.048975
v 0.000000 -0.003238 0.069260
v 0.000000 0.003238 0.069260
v -0.048975 -0.003238 0.048975
v -0.048975 0.003238 0.048975
v -0.069260 -0.003238 0.000000
v -0.069260 0.003238 0.000000
v -0.048975 -0.003238 -0.048975
v -0.048975 0.003238 -0.048975
v 0.039023 0.003480 0.004227
v 0.045970 0.003480 0.012082
v 0.033361 0.003480 -0.007115
v 0.045194 0.003480 -0.000831
v 0.013246 0.003480 -0.028410
v -0.001942 0.003480 -0.044305
v 0.008986 0.003480 -0.041886
v -0.030924 0.003480 0.037259
v -0.022237 0.003480 0.042928
v -0.031128 0.003480 0.025625
v -0.021522 0.003480 0.027874
v -0.030273 0.003480 -0.013597
v -0.017922 0.003480 -0.029204
v -0.030653 0.003480 -0.035547
v -0.022278 0.003480 -0.035777
v 0.004594 0.003480 0.053263
v 0.016498 0.003480 0.035129
v 0.001745 0.003480 0.030826
v 0.011112 0.003480 0.034070
v -0.010407 0.003507 -0.002539
v -0.005784 0.003425 0.011119
v -0.001418 0.003535 -0.024070
v 0.001124 0.003467 -0.007894
v -0.037163 0.003480 0.011721
v -0.030314 0.003480 0.005503
v -0.041091 0.003480 -0.004167
v -0.035731 0.003480 0.002929
v 0.011992 0.003480 0.016741
v 0.020307 0.003480 0.012738
v 0.004865 0.003480 0.005157
v 0.013210 0.003480 0.009999
v 0.029027 0.003480 -0.024613
v 0.034691 0.003480 -0.021346
v 0.020258 0.003480 -0.032609
v 0.029500 0.003480 -0.028302
vn -0.0000 -0.0000 -1.0000
vn 0.7071 -0.0000 -0.7071
vn 1.0000 -0.0000 -0.0000
vn 0.7071 -0.0000 0.7071
vn -0.0000 -0.0000 1.0000
vn -0.7071 -0.0000 0.7071
vn -1.0000 -0.0000 -0.0000
vn -0.0000 1.0000 -0.0000
vn -0.7071 -0.0000 -0.7071
vn -0.0000 -1.0000 -0.0000
vn 0.0052 1.0000 0.0038
vt 0.432310 0.118215
vt 0.424603 0.099609
vt 0.405997 0.091902
vt 0.387391 0.099609
vt 0.379684 0.118215
vt 0.387391 0.136821
vt 0.405997 0.144528
vt 0.610241 0.100738
vt 0.617480 0.118215
vt 0.610241 0.135691
vt 0.592764 0.142930
vt 0.575288 0.135691
vt 0.568049 0.118215
vt 0.575288 0.100738
vt 0.592764 0.093499
vt 0.424603 0.136821
vt 0.592764 0.093499
vt 0.575288 0.100738
vt 0.568049 0.118215
vt 0.575288 0.135691
vt 0.592764 0.142930
vt 0.610241 0.135691
vt 0.619077 0.118215
vt 0.611370 0.099609
vt 0.433154 0.118215
vt 0.425915 0.100738
vt 0.427044 0.099609
vt 0.434751 0.118215
vt 0.592764 0.091902
vt 0.408438 0.093499
vt 0.408438 0.091902
vt 0.574158 0.099609
vt 0.390962 0.100738
vt 0.389832 0.099609
vt 0.566452 0.118215
vt 0.383723 0.118215
vt 0.382125 0.118215
vt 0.574158 0.136821
vt 0.390962 0.135691
vt 0.389832 0.136821
vt 0.592764 0.144528
vt 0.408438 0.142930
vt 0.408438 0.144528
vt 0.611370 0.136821
vt 0.425915 0.135691
vt 0.427044 0.136821
vt 0.395119 0.094727
vt 0.391465 0.094727
vt 0.391764 0.094727
vt 0.397674 0.094727
vt 0.409528 0.094727
vt 0.403318 0.094727
vt 0.403618 0.094727
vt 0.412683 0.094727
vt 0.408596 0.094727
vt 0.410799 0.094727
vt 0.414806 0.094727
vt 0.415278 0.094727
vt 0.411018 0.094727
vt 0.413222 0.094727
vt 0.417142 0.094727
vt 0.403165 0.094727
vt 0.398213 0.094727
vt 0.402060 0.094727
vt 0.405029 0.094727
vt 0.409568 0.094727
vt 0.405394 0.094727
vt 0.408463 0.094727
vt 0.412210 0.094727
vt 0.417095 0.094727
vt 0.414912 0.094727
vt 0.417461 0.094727
vt 0.421035 0.094727
vt 0.404204 0.094727
vt 0.402020 0.094727
vt 0.404570 0.094727
vt 0.408143 0.094727
vt 0.397801 0.094727
vt 0.395618 0.094727
vt 0.398167 0.094727
vt 0.401741 0.094727
s 1
usemtl Material
f 17/1/1 20/1/1 19/2/2 18/2/2
f 18/2/2 19/2/2 22/3/3 21/3/3
f 21/3/3 22/3/3 24/4/4 23/4/4
f 23/4/4 24/4/4 26/5/5 25/5/5
f 25/5/5 26/5/5 28/6/6 27/6/6
f 27/6/6 28/6/6 30/7/7 29/7/7
f 4/8/8 2/9/8 16/10/8 14/11/8 12/12/8 10/13/8 8/14/8 6/15/8
f 29/7/7 30/7/7 32/16/9 31/16/9
f 31/16/9 32/16/9 20/1/1 17/1/1
f 1/9/10 3/8/10 5/17/10 7/18/10 9/19/10 11/20/10 13/21/10 15/22/10
f 3/8/10 1/9/10 17/23/10 18/24/10
f 2/25/8 4/26/8 19/27/8 20/28/8
f 5/17/10 3/8/10 18/24/10 21/29/10
f 4/26/8 6/30/8 22/31/8 19/27/8
f 7/18/10 5/17/10 21/29/10 23/32/10
f 6/30/8 8/33/8 24/34/8 22/31/8
f 9/19/10 7/18/10 23/32/10 25/35/10
f 8/33/8 10/36/8 26/37/8 24/34/8
f 11/20/10 9/19/10 25/35/10 27/38/10
f 10/36/8 12/39/8 28/40/8 26/37/8
f 13/21/10 11/20/10 27/38/10 29/41/10
f 12/39/8 14/42/8 30/43/8 28/40/8
f 15/22/10 13/21/10 29/41/10 31/44/10
f 14/42/8 16/45/8 32/46/8 30/43/8
f 1/9/10 15/22/10 31/44/10 17/23/10
f 16/45/8 2/25/8 20/28/8 32/46/8
s 0
f 33/47/8 34/48/8 36/49/8 35/50/8
f 38/51/8 37/52/8 39/53/8
f 40/54/8 41/55/8 43/56/8 42/57/8
f 44/58/8 45/59/8 47/60/8 46/61/8
f 48/62/8 49/63/8 51/64/8 50/65/8
f 52/66/11 53/67/11 55/68/11 54/69/11
f 56/70/8 57/71/8 59/72/8 58/73/8
f 60/74/8 61/75/8 63/76/8 62/77/8
f 64/78/8 65/79/8 67/80/8 66/81/8
