# Blender 4.0.2
# www.blender.org
mtllib ChickenWorld.mtl
o Chiken
v 0.045065 -0.042660 0.016074
v 0.045065 -0.012581 0.052960
v -0.068806 -0.011753 0.008980
v 0.045065 -0.034326 0.042156
v -0.005199 -0.034762 0.037370
v -0.019010 -0.017121 0.042156
v -0.019010 -0.041067 0.016074
v 0.045065 0.015044 0.052960
v 0.045065 0.050187 0.016074
v -0.068806 0.006207 0.008980
v 0.045065 0.039414 0.042156
v -0.005199 0.034597 0.037370
v -0.019010 0.039383 0.016074
v -0.019010 0.013354 0.042156
v 0.045065 -0.042660 -0.016074
v -0.068806 -0.011753 -0.008980
v 0.045065 -0.012581 -0.052960
v -0.019010 -0.041067 -0.016074
v -0.005199 -0.034762 -0.037370
v -0.019010 -0.017121 -0.042156
v 0.045065 -0.034326 -0.042156
v 0.045065 0.050187 -0.016074
v 0.045065 0.015044 -0.052960
v -0.068806 0.006207 -0.008980
v 0.045065 0.039414 -0.042156
v -0.005199 0.034597 -0.037370
v -0.019010 0.013354 -0.042156
v -0.019010 0.039383 -0.016074
v 0.096834 -0.042660 0.016074
v 0.133720 -0.012581 0.016074
v 0.096834 -0.012581 0.052960
v 0.122916 -0.034326 0.016074
v 0.118130 -0.030471 0.037370
v 0.122916 -0.012581 0.042156
v 0.096834 -0.034326 0.042156
v 0.096834 0.050187 0.016074
v 0.096834 0.015044 0.052960
v 0.133720 0.015044 0.016074
v 0.096834 0.039414 0.042156
v 0.118130 0.034742 0.037370
v 0.122916 0.015044 0.042156
v 0.122916 0.039414 0.016074
v 0.096834 -0.042660 -0.016074
v 0.096834 -0.012581 -0.052960
v 0.133720 -0.012581 -0.016074
v 0.096834 -0.034326 -0.042156
v 0.118130 -0.030471 -0.037370
v 0.122916 -0.012581 -0.042156
v 0.122916 -0.034326 -0.016074
v 0.096834 0.050187 -0.016074
v 0.133720 0.015044 -0.016074
v 0.096834 0.015044 -0.052960
v 0.122916 0.039414 -0.016074
v 0.118130 0.034742 -0.037370
v 0.122916 0.015044 -0.042156
v 0.096834 0.039414 -0.042156
v -0.055774 -0.018847 0.016074
v -0.055774 -0.018847 -0.016074
v -0.055774 0.013301 0.016074
v -0.055774 0.013301 -0.016074
v -0.134151 -0.011753 0.008980
v -0.134151 -0.011753 -0.008980
v -0.134151 0.006207 0.008980
v -0.134151 0.006207 -0.008980
v -0.154601 0.010377 -0.013150
v -0.143013 0.010377 -0.013150
v -0.143013 0.010377 0.013150
v -0.154601 0.010377 0.013150
v -0.154601 -0.015923 0.013150
v -0.143013 -0.015923 0.013150
v -0.143013 -0.015923 -0.013150
v -0.154601 -0.015923 -0.013150
v -0.160353 -0.012393 0.009620
v -0.163463 -0.006836 0.004063
v -0.163463 -0.006836 -0.004063
v -0.160353 -0.012393 -0.009620
v -0.160353 0.006847 0.009620
v -0.163463 0.001290 0.004063
v -0.160353 0.006847 -0.009620
v -0.163463 0.001290 -0.004063
vn 0.1779 -0.2096 0.9615
vn 0.1793 0.1907 0.9651
vn -0.0790 0.1951 0.9776
vn -0.0704 -0.2098 0.9752
vn 0.9615 -0.2096 -0.1779
vn 0.9651 0.1907 -0.1793
vn 0.9651 0.1907 0.1793
vn 0.9615 -0.2096 0.1779
vn 0.1785 0.9676 -0.1785
vn -0.0778 0.9798 -0.1840
vn -0.0778 0.9798 0.1840
vn 0.1785 0.9676 0.1785
vn -0.0000 -0.7071 0.7071
vn -0.0000 0.7071 0.7071
vn -0.0704 -0.2098 -0.9752
vn -0.0790 0.1951 -0.9776
vn 0.1793 0.1907 -0.9651
vn 0.1779 -0.2096 -0.9615
vn -0.0119 -0.9882 0.1530
vn -0.0361 -0.7444 0.6668
vn -0.1849 -0.7315 0.6563
vn -0.3113 -0.9145 0.2585
vn -0.3873 -0.2978 0.8725
vn -0.6224 -0.5670 0.5396
vn -0.0769 0.7121 0.6978
vn -0.2612 0.6865 0.6786
vn -0.4052 0.2694 0.8736
vn -0.4041 0.8746 0.2678
vn -0.6456 0.5400 0.5400
vn -0.0119 -0.9882 -0.1530
vn -0.3113 -0.9145 -0.2585
vn -0.1849 -0.7315 -0.6563
vn -0.0361 -0.7444 -0.6668
vn -0.6224 -0.5670 -0.5396
vn -0.3873 -0.2978 -0.8725
vn -0.0769 0.7121 -0.6978
vn -0.2612 0.6865 -0.6786
vn -0.4041 0.8746 -0.2678
vn -0.4052 0.2694 -0.8736
vn -0.6456 0.5400 -0.5400
vn 0.1436 -0.9792 0.1436
vn 0.6506 -0.7433 0.1556
vn 0.5446 -0.6378 0.5446
vn 0.1556 -0.7433 0.6506
vn 0.6926 -0.2013 0.6926
vn 0.1711 0.7051 0.6881
vn 0.5704 0.5911 0.5704
vn 0.6881 0.7051 0.1711
vn 0.6951 0.1837 0.6951
vn 0.1436 -0.9792 -0.1436
vn 0.1556 -0.7433 -0.6506
vn 0.5446 -0.6378 -0.5446
vn 0.6506 -0.7433 -0.1556
vn 0.6926 -0.2013 -0.6926
vn 0.6881 0.7051 -0.1711
vn 0.5704 0.5911 -0.5704
vn 0.1711 0.7051 -0.6881
vn 0.6951 0.1837 -0.6951
vn -0.6100 -0.5603 0.5603
vn -0.6100 -0.5603 -0.5603
vn -0.6100 0.5603 0.5603
vn -0.6100 0.5603 -0.5603
vn 0.5540 0.5887 -0.5887
vn 0.5540 -0.5887 -0.5887
vn 0.2586 -0.6831 -0.6831
vn 0.2586 0.6831 -0.6831
vn -0.0000 0.7071 -0.7071
vn -0.0000 -0.7071 -0.7071
vn -0.3068 -0.6730 0.6730
vn -0.3068 0.6730 0.6730
vn -0.7648 0.4556 0.4556
vn -0.7648 -0.4556 0.4556
vn 0.5540 -0.5887 0.5887
vn 0.2586 -0.6831 0.6831
vn 0.5540 0.5887 0.5887
vn 0.2586 0.6831 0.6831
vn -0.9620 -0.1932 0.1932
vn -0.9620 0.1932 0.1932
vn -0.9620 0.1932 -0.1932
vn -0.9620 -0.1932 -0.1932
vn -0.3068 0.6730 -0.6730
vn -0.3068 -0.6730 -0.6730
vn -0.7648 -0.4556 -0.4556
vn -0.7648 0.4556 -0.4556
vt 0.588639 0.197146
vt 0.602505 0.197146
vt 0.602505 0.139408
vt 0.588639 0.139408
vt 0.588639 0.238286
vt 0.602505 0.238286
vt 0.618415 0.197146
vt 0.618415 0.139408
vt 0.398740 0.202963
vt 0.415012 0.202963
vt 0.415012 0.095831
vt 0.398740 0.095831
vt 0.572729 0.139408
vt 0.577389 0.139408
vt 0.579453 0.083347
vt 0.577389 0.067944
vt 0.588639 0.067944
vt 0.588639 0.026940
vt 0.613755 0.139408
vt 0.611690 0.083347
vt 0.602505 0.067944
vt 0.613755 0.067944
vt 0.602505 0.026940
vt 0.579453 0.083347
vt 0.572729 0.197146
vt 0.577389 0.226236
vt 0.579453 0.220898
vt 0.577389 0.197146
vt 0.588639 0.226236
vt 0.613755 0.197146
vt 0.611690 0.220898
vt 0.613755 0.226236
vt 0.602505 0.226236
vt 0.591699 0.012405
vt 0.599445 0.012405
vt 0.394962 0.081303
vt 0.418790 0.081303
vt 0.394962 0.062304
vt 0.418790 0.062304
vt 0.416338 0.052874
vt 0.397414 0.052874
vt 0.402590 0.047776
vt 0.411163 0.047776
vt 0.411163 0.047776
vt 0.402590 0.047776
vt 0.416338 0.052874
vt 0.416338 0.052874
vt 0.397414 0.052874
vt 0.397414 0.052874
s 1
usemtl Material
f 31/1/1 37/2/2 8/3/3 2/4/4
f 45/5/5 51/6/6 38/6/7 30/5/8
f 50/7/9 22/8/10 9/8/11 36/7/12
f 3/9/13 10/10/14 63/11/14 61/12/13
f 17/4/15 23/3/16 52/2/17 44/1/18
f 1/13/19 4/14/20 5/15/21 7/16/22
f 2/4/4 6/17/23 5/15/21 4/14/20
f 57/18/24 7/16/22 5/15/21 6/17/23
f 8/3/3 11/19/25 12/20/26 14/21/27
f 9/8/11 13/22/28 12/20/26 11/19/25
f 59/23/29 14/21/27 12/20/26 13/22/28
f 15/13/30 18/16/31 19/24/32 21/14/33
f 58/18/34 20/17/35 19/24/32 18/16/31
f 17/4/15 21/14/33 19/24/32 20/17/35
f 22/8/10 25/19/36 26/20/37 28/22/38
f 23/3/16 27/21/39 26/20/37 25/19/36
f 60/23/40 28/22/38 26/20/37 27/21/39
f 29/25/41 32/26/42 33/27/43 35/28/44
f 30/5/8 34/29/45 33/27/43 32/26/42
f 31/1/1 35/28/44 33/27/43 34/29/45
f 36/7/12 39/30/46 40/31/47 42/32/48
f 37/2/2 41/33/49 40/31/47 39/30/46
f 38/6/7 42/32/48 40/31/47 41/33/49
f 43/25/50 46/28/51 47/27/52 49/26/53
f 44/1/18 48/29/54 47/27/52 46/28/51
f 45/5/5 49/26/53 47/27/52 48/29/54
f 50/7/9 53/32/55 54/31/56 56/30/57
f 51/6/6 55/33/58 54/31/56 53/32/55
f 52/2/17 56/30/57 54/31/56 55/33/58
f 15/13/30 1/13/19 7/16/22 18/16/31
f 18/16/31 7/16/22 57/18/24 58/18/34
f 2/4/4 8/3/3 14/21/27 6/17/23
f 6/17/23 14/21/27 59/23/29 57/18/24
f 9/8/11 22/8/10 28/22/38 13/22/28
f 13/22/28 28/22/38 60/23/40 59/23/29
f 23/3/16 17/4/15 20/17/35 27/21/39
f 27/21/39 20/17/35 58/18/34 60/23/40
f 43/25/50 15/13/30 21/14/33 46/28/51
f 46/28/51 21/14/33 17/4/15 44/1/18
f 22/8/10 50/7/9 56/30/57 25/19/36
f 25/19/36 56/30/57 52/2/17 23/3/16
f 51/6/6 45/5/5 48/29/54 55/33/58
f 55/33/58 48/29/54 44/1/18 52/2/17
f 29/25/41 43/25/50 49/26/53 32/26/42
f 32/26/42 49/26/53 45/5/5 30/5/8
f 50/7/9 36/7/12 42/32/48 53/32/55
f 53/32/55 42/32/48 38/6/7 51/6/6
f 37/2/2 31/1/1 34/29/45 41/33/49
f 41/33/49 34/29/45 30/5/8 38/6/7
f 1/13/19 29/25/41 35/28/44 4/14/20
f 4/14/20 35/28/44 31/1/1 2/4/4
f 36/7/12 9/8/11 11/19/25 39/30/46
f 39/30/46 11/19/25 8/3/3 37/2/2
f 15/13/30 43/25/50 29/25/41 1/13/19
f 3/34/59 16/34/60 58/18/34 57/18/24
f 10/35/61 3/34/59 57/18/24 59/23/29
f 24/35/62 10/35/61 59/23/29 60/23/40
f 16/34/60 24/35/62 60/23/40 58/18/34
f 64/11/63 62/12/64 71/36/65 66/37/66
f 10/10/14 24/10/67 64/11/67 63/11/14
f 16/9/68 3/9/13 61/12/13 62/12/68
f 24/10/67 16/9/68 62/12/68 64/11/67
f 69/38/69 68/39/70 77/40/71 73/41/72
f 62/12/64 61/12/73 70/36/74 71/36/65
f 63/11/75 64/11/63 66/37/66 67/37/76
f 74/42/77 78/43/78 80/44/79 75/45/80
f 65/39/81 72/38/82 76/41/83 79/40/84
f 61/12/73 63/11/75 67/37/76 70/36/74
f 68/39/70 69/38/69 70/36/74 67/37/76
f 72/38/82 65/39/81 66/37/66 71/36/65
f 69/38/69 72/38/82 71/36/65 70/36/74
f 65/39/81 68/39/70 67/37/76 66/37/66
f 68/39/70 65/39/81 79/46/84 77/47/71
f 74/42/77 75/45/80 76/48/83 73/49/72
f 78/43/78 74/42/77 73/41/72 77/40/71
f 80/44/79 78/43/78 77/47/71 79/46/84
f 75/45/80 80/44/79 79/40/84 76/41/83
f 72/38/82 69/38/69 73/49/72 76/48/83
