# Blender 4.0.2
# www.blender.org
mtllib BaconPizza.mtl
o BaconPizza
v -0.002598 -0.003423 -0.085473
v 0.025722 0.004157 -0.080795
v -0.032168 0.004616 0.107953
v -0.006530 -0.001459 0.110663
v 0.005223 0.000263 -0.084228
v 0.017675 0.003525 -0.082212
v 0.009348 0.001413 -0.083545
v 0.013481 0.002543 -0.082863
v -0.012898 0.001580 0.110043
v -0.025492 0.004569 0.108712
v -0.016836 0.003056 0.109646
v -0.021445 0.004150 0.109158
v -0.028639 0.006008 0.091342
v -0.024858 0.009233 0.075443
v -0.005673 0.009271 0.084409
v -0.006338 0.003839 0.096553
v -0.001160 0.006577 -0.050821
v -0.001164 0.003764 -0.062119
v -0.003529 0.005164 -0.014653
v -0.001630 0.003853 -0.034208
v -0.011738 0.013837 0.016059
v -0.007329 0.007914 -0.000226
v -0.019105 0.011498 0.053868
v -0.014594 0.010321 0.034249
v 0.002619 0.007713 0.036364
v -0.002052 0.009758 0.057558
v 0.010792 0.006145 0.001607
v 0.006778 0.007066 0.017430
v 0.016311 0.008957 -0.031254
v 0.014060 0.007472 -0.012155
v 0.023607 0.004387 -0.059745
v 0.020578 0.008714 -0.048248
v -0.011572 0.006612 0.096068
v -0.009557 0.010249 0.083670
v -0.020824 0.011051 0.077145
v -0.023374 0.007115 0.092682
v -0.015287 0.007475 0.095071
v -0.012660 0.010729 0.081876
v -0.019579 0.007499 0.093696
v -0.017147 0.012159 0.079283
v -0.011791 0.011507 0.034899
v -0.016242 0.012713 0.054947
v -0.005006 0.011652 0.057412
v -0.000333 0.009325 0.036213
v -0.008228 0.011918 0.035496
v -0.012715 0.013481 0.056036
v -0.003992 0.010914 0.035875
v -0.008584 0.013007 0.056879
v -0.004203 0.008780 0.000030
v -0.008863 0.015338 0.016472
v 0.003395 0.009683 0.017196
v 0.007915 0.006600 0.001073
v -0.000311 0.008721 0.000285
v -0.005186 0.015138 0.016801
v 0.004209 0.007637 0.000630
v -0.000636 0.012770 0.017030
v 0.001173 0.005672 -0.032248
v -0.000313 0.006141 -0.014408
v 0.011450 0.007494 -0.012787
v 0.012834 0.008810 -0.030207
v 0.004492 0.006614 -0.029625
v 0.003649 0.006810 -0.014039
v 0.008763 0.007762 -0.028935
v 0.008000 0.007230 -0.013452
v 0.016679 0.008743 -0.049231
v 0.019089 0.003498 -0.061061
v 0.004504 0.005700 -0.061755
v 0.003298 0.008750 -0.050453
v 0.014718 0.003897 -0.061520
v 0.012631 0.008885 -0.049826
v 0.009385 0.005143 -0.061682
v 0.007713 0.009122 -0.050213
vn 0.4903 0.8690 0.0667
vn 0.5312 0.8443 0.0703
vn 0.4901 0.8702 0.0514
vn 0.4967 0.8671 0.0380
vn 0.2423 0.9455 0.2174
vn 0.3454 0.9077 0.2383
vn 0.4493 0.8917 0.0547
vn 0.3712 0.9271 0.0526
vn -0.4003 0.9163 -0.0125
vn -0.2524 0.9675 0.0121
vn -0.1942 0.9740 -0.1163
vn -0.3835 0.9108 -0.1529
vn -0.2765 0.9014 -0.3333
vn -0.1364 0.9435 -0.3020
vn -0.2270 0.9649 -0.1319
vn -0.3239 0.9316 -0.1648
vn -0.5047 0.8569 0.1052
vn -0.3218 0.9403 0.1105
vn -0.2630 0.9613 -0.0823
vn -0.4311 0.8984 -0.0837
vn -0.1923 0.9677 0.1627
vn -0.2242 0.9667 0.1232
vn -0.1056 0.9893 0.1010
vn -0.0678 0.9877 0.1406
vn -0.0249 0.9819 -0.1879
vn -0.0504 0.9758 -0.2130
vn -0.1187 0.9929 -0.0068
vn -0.0876 0.9960 -0.0184
vn -0.0781 0.9969 -0.0010
vn -0.0161 0.9998 -0.0122
vn -0.0038 0.9799 -0.1992
vn -0.0006 0.9795 -0.2016
vn 0.2715 0.9623 0.0180
vn 0.2515 0.9664 0.0532
vn 0.0270 0.9959 0.0860
vn -0.0028 0.9978 0.0660
vn 0.3611 0.8659 0.3461
vn 0.2544 0.9100 0.3274
vn 0.3176 0.8878 0.3330
vn 0.3961 0.8546 0.3358
vn 0.2390 0.9703 0.0387
vn 0.1292 0.9725 0.1937
vn -0.0139 0.9999 -0.0058
vn -0.0772 0.9845 0.1573
vn 0.0867 0.9948 0.0538
vn 0.1730 0.9834 -0.0551
vn -0.2878 0.9560 -0.0573
vn -0.3180 0.9442 0.0859
vn -0.1081 0.9932 0.0430
vn 0.0139 0.9855 -0.1693
vn -0.0334 0.9927 -0.1159
vn -0.1483 0.9851 0.0866
vn -0.0147 0.9968 -0.0789
vn 0.0498 0.9758 -0.2129
vn 0.2610 0.9623 -0.0767
vn -0.0438 0.9990 0.0103
vn -0.0895 0.9940 -0.0632
vn 0.1194 0.9721 -0.2021
vn 0.3597 0.9305 0.0688
vn 0.4228 0.9062 0.0001
vn 0.0955 0.9545 0.2825
vn 0.1489 0.9439 0.2947
vn -0.0521 0.9702 0.2367
vn 0.0198 0.9754 0.2196
vn 0.0429 0.9698 -0.2399
vn -0.0169 0.9860 -0.1660
vn -0.2193 0.9485 -0.2288
vn -0.1769 0.9511 -0.2530
vn 0.1969 -0.9220 0.3334
vn -0.3481 0.9041 -0.2478
vn -0.3482 0.9051 -0.2439
vn -0.0734 0.9953 0.0636
vn -0.1733 0.9846 0.0244
vn -0.1933 0.9810 -0.0195
vn -0.3343 0.9402 -0.0647
vn -0.3719 0.9262 0.0620
vn -0.3744 0.9240 -0.0775
vn -0.3959 0.9149 -0.0794
vn -0.0154 0.9971 0.0750
vt 0.600086 0.022127
vt 0.597275 0.022141
vt 0.592966 0.021630
vt 0.595848 0.021603
vt 0.599723 0.019684
vt 0.596339 0.019684
vt 0.599243 0.021977
vt 0.602039 0.021978
vt 0.614039 0.022064
vt 0.611223 0.022075
vt 0.606770 0.021476
vt 0.609668 0.021448
vt 0.602396 0.021109
vt 0.599589 0.021112
vt 0.593089 0.021258
vt 0.595600 0.021321
vt 0.588662 0.021851
vt 0.585801 0.021852
vt 0.583137 0.021727
vt 0.586422 0.021722
vt 0.607829 0.018599
vt 0.611661 0.018599
vt 0.607414 0.018599
vt 0.572798 0.021066
vt 0.569154 0.021070
vt 0.571964 0.017245
vt 0.576652 0.017245
vt 0.574816 0.021855
vt 0.571957 0.021855
vt 0.569722 0.021734
vt 0.573004 0.021732
vt 0.588471 0.021228
vt 0.585713 0.021233
vt 0.579196 0.021320
vt 0.581570 0.021375
vt 0.594965 0.018599
vt 0.598796 0.018599
vt 0.599212 0.018599
vt 0.594965 0.018599
vt 0.657341 0.086090
vt 0.659657 0.088384
vt 0.663166 0.088377
vt 0.660481 0.086086
vt 0.602864 0.019680
vt 0.605549 0.021971
vt 0.609614 0.021971
vt 0.606498 0.019680
vt 0.665305 0.088492
vt 0.660938 0.087918
vt 0.664387 0.087882
vt 0.668840 0.088482
vt 0.664116 0.086086
vt 0.667232 0.088377
vt 0.670760 0.088383
vt 0.667268 0.086090
vt 0.578308 0.021851
vt 0.576241 0.021726
vt 0.579912 0.021723
vt 0.582321 0.021850
vt 0.630415 0.087472
vt 0.634269 0.083651
vt 0.636724 0.083633
vt 0.633447 0.087462
vt 0.632433 0.088261
vt 0.630621 0.088138
vt 0.633858 0.088132
vt 0.635926 0.088257
vt 0.592090 0.021174
vt 0.585508 0.021289
vt 0.589573 0.021271
vt 0.596110 0.021139
vt 0.639938 0.088256
vt 0.637529 0.088130
vt 0.640754 0.088133
vt 0.643419 0.088258
vt 0.646226 0.087611
vt 0.639600 0.087711
vt 0.643125 0.087695
vt 0.649707 0.087580
vt 0.603613 0.022104
vt 0.599337 0.021555
vt 0.603321 0.021512
vt 0.607687 0.022086
vt 0.653727 0.087546
vt 0.647190 0.087678
vt 0.650706 0.087665
vt 0.657207 0.087518
vt 0.657712 0.088531
vt 0.653507 0.088002
vt 0.656955 0.087962
vt 0.661231 0.088510
vt 0.659274 0.085003
vt 0.659429 0.085005
vt 0.656829 0.085005
vt 0.656414 0.085005
vt 0.604964 0.018597
vt 0.604814 0.018599
vt 0.601811 0.018599
vt 0.601657 0.018597
vt 0.665446 0.085005
vt 0.665031 0.085005
vt 0.662432 0.085005
vt 0.662581 0.085003
vt 0.636818 0.087458
vt 0.639163 0.083633
vt 0.641590 0.083651
vt 0.639836 0.087459
vt 0.000000 0.000000
vt 0.575830 0.021056
vt 0.579107 0.017227
vt 0.581545 0.017227
vt 0.579201 0.021051
vt 0.585869 0.021044
vt 0.582219 0.021053
vt 0.583973 0.017245
vt 0.588660 0.017245
vt 0.609650 0.019684
vt 0.613035 0.019684
vt 0.615942 0.021980
vt 0.613142 0.021977
vt 0.587714 0.022126
vt 0.573342 0.022106
s 1
usemtl Material
f 44/1/1 25/2/2 28/3/3 51/4/4
f 34/5/5 15/6/6 26/7/7 43/8/8
f 24/9/9 41/10/10 50/11/11 21/12/12
f 22/13/13 49/14/14 58/15/15 19/16/16
f 20/17/17 57/18/18 68/19/19 17/20/20
f 36/21/21 13/22/22 3/22/23 10/23/24
f 66/24/25 31/25/26 2/26/27 6/27/28
f 60/28/29 29/29/30 32/30/31 65/31/32
f 52/32/33 27/33/34 30/34/35 59/35/36
f 16/36/37 33/37/38 9/38/39 4/39/40
f 34/40/5 43/41/8 48/42/41 38/43/42
f 38/44/42 48/45/41 46/46/43 40/47/44
f 45/48/45 54/49/46 50/50/11 41/51/10
f 40/52/44 46/53/43 42/54/47 35/55/48
f 63/56/49 70/57/50 72/58/51 61/59/52
f 66/60/25 6/61/28 8/62/53 69/63/54
f 60/64/29 65/65/32 70/66/50 63/67/49
f 55/68/55 64/69/56 62/70/57 53/71/58
f 61/72/52 72/73/51 68/74/19 57/75/18
f 52/76/33 59/77/36 64/78/56 55/79/55
f 47/80/59 56/81/60 54/82/46 45/83/45
f 53/84/58 62/85/57 58/86/15 49/87/14
f 44/88/1 51/89/4 56/90/60 47/91/59
f 37/92/61 11/93/62 9/94/39 33/95/38
f 39/96/63 12/97/64 11/98/62 37/99/61
f 36/100/21 10/101/24 12/102/64 39/103/63
f 71/104/65 7/105/66 5/106/67 67/107/68
f 20/108/69 29/108/69 60/108/69 63/108/69 61/108/69 57/108/69
f 69/109/54 8/110/53 7/111/66 71/112/65
f 18/113/70 67/114/68 5/115/67 1/116/71
f 40/52/44 35/55/48 36/100/21 39/103/63
f 38/44/42 40/47/44 39/96/63 37/99/61
f 34/40/5 38/43/42 37/92/61 33/95/38
f 64/78/56 59/77/36 60/64/72 63/67/73
f 66/60/25 69/63/54 70/66/50 65/65/32
f 62/70/57 64/69/56 63/56/73 61/59/74
f 69/109/54 71/112/65 72/58/51 70/57/50
f 58/86/15 62/85/57 61/72/74 57/75/75
f 71/104/65 67/107/68 68/74/19 72/73/51
f 56/90/60 51/89/4 52/76/33 55/79/55
f 54/82/46 56/81/60 55/68/55 53/71/58
f 50/50/11 54/49/46 53/84/58 49/87/14
f 48/42/41 43/41/8 44/88/1 47/91/59
f 46/46/43 48/45/41 47/80/59 45/83/45
f 42/54/47 46/53/43 45/48/45 41/51/10
f 15/6/6 34/5/5 33/37/38 16/36/37
f 13/22/22 36/21/21 35/117/48 14/118/76
f 41/10/10 24/9/9 23/119/77 42/120/47
f 25/2/2 44/1/1 43/8/8 26/7/7
f 17/20/20 68/19/19 67/114/68 18/113/70
f 65/31/32 32/30/31 31/25/26 66/24/25
f 49/14/14 22/13/13 21/12/12 50/11/11
f 27/33/34 52/32/33 51/4/4 28/3/3
f 57/18/75 20/121/78 19/16/16 58/15/15
f 29/29/79 60/122/72 59/35/36 30/34/35
f 14/118/76 35/117/48 42/120/47 23/119/77
