# Blender 4.0.2
# www.blender.org
mtllib CheeseWorld.mtl
o CheeseWorld
v 0.000000 -0.090378 0.000000
v 0.000000 -0.029394 -0.243020
v 0.000000 -0.084531 -0.224587
v 0.000000 -0.063496 -0.237438
v 0.000000 0.090378 0.000000
v 0.000000 0.029394 -0.243020
v 0.000000 0.084531 -0.224587
v 0.000000 0.063496 -0.237438
v 0.067764 -0.030323 -0.252899
v 0.061859 -0.095013 -0.230859
v 0.066182 -0.067672 -0.246993
v 0.067764 0.030323 -0.252899
v 0.061859 0.095013 -0.230859
v 0.066182 0.067672 -0.246993
v 0.130910 -0.030323 -0.226743
v 0.119502 -0.095013 -0.206983
v 0.127853 -0.067672 -0.221448
v 0.130910 0.030323 -0.226743
v 0.119502 0.095013 -0.206983
v 0.127853 0.067672 -0.221448
v 0.185135 -0.030323 -0.185135
v 0.169001 -0.095013 -0.169001
v 0.180812 -0.067672 -0.180812
v 0.185135 0.030323 -0.185135
v 0.169001 0.095013 -0.169001
v 0.180812 0.067672 -0.180812
v 0.226743 -0.030323 -0.130910
v 0.206983 -0.095013 -0.119502
v 0.221448 -0.067672 -0.127853
v 0.226743 0.030323 -0.130910
v 0.206983 0.095013 -0.119502
v 0.221448 0.067672 -0.127853
v 0.252899 -0.030323 -0.067764
v 0.230859 -0.095013 -0.061859
v 0.246993 -0.067672 -0.066182
v 0.252899 0.030323 -0.067764
v 0.230859 0.095013 -0.061859
v 0.246993 0.067672 -0.066182
v 0.261820 -0.030323 0.000000
v 0.239003 -0.095013 0.000000
v 0.255706 -0.067672 0.000000
v 0.261820 0.030323 0.000000
v 0.239003 0.095013 0.000000
v 0.255706 0.067672 0.000000
v 0.252899 -0.030323 0.067764
v 0.230859 -0.095013 0.061859
v 0.246993 -0.067672 0.066182
v 0.252899 0.030323 0.067764
v 0.230859 0.095013 0.061859
v 0.246993 0.067672 0.066182
v 0.226743 -0.030323 0.130910
v 0.206983 -0.095013 0.119502
v 0.221448 -0.067672 0.127853
v 0.226743 0.030323 0.130910
v 0.206983 0.095013 0.119502
v 0.221448 0.067672 0.127853
v 0.185135 -0.030323 0.185135
v 0.169001 -0.095013 0.169001
v 0.180812 -0.067672 0.180812
v 0.185135 0.030323 0.185135
v 0.169001 0.095013 0.169001
v 0.180812 0.067672 0.180812
v 0.130910 -0.030323 0.226743
v 0.119502 -0.095013 0.206983
v 0.127853 -0.067672 0.221448
v 0.130910 0.030323 0.226743
v 0.119502 0.095013 0.206983
v 0.127853 0.067672 0.221448
v 0.067764 -0.030323 0.252899
v 0.061859 -0.095013 0.230859
v 0.066182 -0.067672 0.246993
v 0.067764 0.030323 0.252899
v 0.061859 0.095013 0.230859
v 0.066182 0.067672 0.246993
v 0.000000 -0.030323 0.261820
v 0.000000 -0.095013 0.239003
v 0.000000 -0.067672 0.255706
v 0.000000 0.030323 0.261820
v 0.000000 0.095013 0.239003
v 0.000000 0.067672 0.255706
v -0.067764 -0.030323 0.252899
v -0.061859 -0.095013 0.230859
v -0.066182 -0.067672 0.246993
v -0.067764 0.030323 0.252899
v -0.061859 0.095013 0.230859
v -0.066182 0.067672 0.246993
v -0.130910 -0.030323 0.226743
v -0.119502 -0.095013 0.206983
v -0.127853 -0.067672 0.221448
v -0.130910 0.030323 0.226743
v -0.119502 0.095013 0.206983
v -0.127853 0.067672 0.221448
v -0.185135 -0.030323 0.185135
v -0.169001 -0.095013 0.169001
v -0.180812 -0.067672 0.180812
v -0.185135 0.030323 0.185135
v -0.169001 0.095013 0.169001
v -0.180812 0.067672 0.180812
v -0.226743 -0.030323 0.130910
v -0.206983 -0.095013 0.119502
v -0.221448 -0.067672 0.127853
v -0.226743 0.030323 0.130910
v -0.206983 0.095013 0.119502
v -0.221448 0.067672 0.127853
v -0.252899 -0.030323 0.067764
v -0.230859 -0.095013 0.061859
v -0.246993 -0.067672 0.066182
v -0.252899 0.030323 0.067764
v -0.230859 0.095013 0.061859
v -0.246993 0.067672 0.066182
v -0.261820 -0.030323 0.000000
v -0.239003 -0.095013 0.000000
v -0.255706 -0.067672 0.000000
v -0.261820 0.030323 0.000000
v -0.239003 0.095013 0.000000
v -0.255706 0.067672 0.000000
v -0.252899 -0.030323 -0.067764
v -0.230859 -0.095013 -0.061859
v -0.246993 -0.067672 -0.066182
v -0.252899 0.030323 -0.067764
v -0.230859 0.095013 -0.061859
v -0.246993 0.067672 -0.066182
v -0.226743 -0.030323 -0.130910
v -0.206983 -0.095013 -0.119502
v -0.221448 -0.067672 -0.127853
v -0.226743 0.030323 -0.130910
v -0.206983 0.095013 -0.119502
v -0.221448 0.067672 -0.127853
v -0.171841 -0.029394 -0.171841
v -0.158807 -0.084531 -0.158807
v -0.167894 -0.063496 -0.167894
v -0.171841 0.029394 -0.171841
v -0.158807 0.084531 -0.158807
v -0.167894 0.063496 -0.167894
v 0.055953 -0.105020 -0.208820
v -0.000000 -0.090378 -0.211257
v -0.000000 0.090378 -0.211257
v 0.055953 0.105020 -0.208820
v 0.108093 -0.105020 -0.187223
v 0.108093 0.105020 -0.187223
v 0.152867 -0.105020 -0.152867
v 0.152867 0.105020 -0.152867
v 0.187223 -0.105020 -0.108093
v 0.187223 0.105020 -0.108093
v 0.208820 -0.105020 -0.055953
v 0.208820 0.105020 -0.055953
v 0.216187 -0.105020 0.000000
v 0.216187 0.105020 0.000000
v 0.208820 -0.105020 0.055953
v 0.208820 0.105020 0.055953
v 0.187223 -0.105020 0.108093
v 0.187223 0.105020 0.108093
v 0.152867 -0.105020 0.152867
v 0.152867 0.105020 0.152867
v 0.108093 -0.105020 0.187223
v 0.108093 0.105020 0.187223
v 0.055953 -0.105020 0.208820
v 0.055953 0.105020 0.208820
v 0.000000 -0.105020 0.216187
v 0.000000 0.105020 0.216187
v -0.055953 -0.105020 0.208820
v -0.055953 0.105020 0.208820
v -0.108093 -0.105020 0.187223
v -0.108093 0.105020 0.187223
v -0.152867 -0.105020 0.152867
v -0.152867 0.105020 0.152867
v -0.187223 -0.105020 0.108093
v -0.187223 0.105020 0.108093
v -0.208820 -0.105020 0.055953
v -0.208820 0.105020 0.055953
v -0.216187 -0.105020 0.000000
v -0.216187 0.105020 0.000000
v -0.208820 -0.105020 -0.055953
v -0.208820 0.105020 -0.055953
v -0.187223 -0.105020 -0.108093
v -0.187223 0.105020 -0.108093
v -0.149381 -0.090378 -0.149381
v -0.149381 0.090378 -0.149381
v 0.000000 -0.067672 -0.255706
v 0.000000 -0.030323 -0.261820
v 0.000000 -0.095013 -0.239003
v 0.000000 -0.105020 -0.216187
v 0.000000 0.030323 -0.261820
v 0.000000 0.067672 -0.255706
v 0.000000 0.095013 -0.239003
v 0.000000 0.105020 -0.216187
v -0.185135 -0.030323 -0.185135
v -0.180812 -0.067672 -0.180812
v -0.169001 -0.095013 -0.169001
v -0.152867 -0.105020 -0.152867
v -0.180812 0.067672 -0.180812
v -0.185135 0.030323 -0.185135
v -0.169001 0.095013 -0.169001
v -0.152867 0.105020 -0.152867
v -0.000000 -0.105020 0.000000
v -0.000000 0.105020 0.000000
vn 0.4984 -0.0805 -0.8632
vn 0.4984 0.0805 -0.8632
vn 0.7048 0.0805 -0.7048
vn 0.7048 -0.0805 -0.7048
vn 0.8632 0.0805 -0.4984
vn 0.8632 -0.0805 -0.4984
vn 0.9628 0.0805 -0.2580
vn 0.9628 -0.0805 -0.2580
vn 0.9968 0.0805 -0.0000
vn 0.9968 -0.0805 -0.0000
vn 0.9628 0.0805 0.2580
vn 0.9628 -0.0805 0.2580
vn 0.8632 0.0805 0.4984
vn 0.8632 -0.0805 0.4984
vn 0.7048 0.0805 0.7048
vn 0.7048 -0.0805 0.7048
vn 0.4984 0.0805 0.8632
vn 0.4984 -0.0805 0.8632
vn 0.2580 0.0805 0.9628
vn 0.2580 -0.0805 0.9628
vn -0.0000 0.0805 0.9968
vn -0.0000 -0.0805 0.9968
vn -0.2580 0.0805 0.9628
vn -0.2580 -0.0805 0.9628
vn -0.4984 0.0805 0.8632
vn -0.4984 -0.0805 0.8632
vn -0.7048 0.0805 0.7048
vn -0.7048 -0.0805 0.7048
vn -0.8632 0.0805 0.4984
vn -0.8632 -0.0805 0.4984
vn -0.9628 0.0805 0.2580
vn -0.9628 -0.0805 0.2580
vn -0.9968 0.0805 -0.0000
vn -0.9968 -0.0805 -0.0000
vn -0.9628 0.0805 -0.2580
vn -0.9628 -0.0805 -0.2580
vn -0.8632 0.0805 -0.4984
vn -0.8632 -0.0805 -0.4984
vn -0.7908 0.0798 -0.6068
vn -0.7908 -0.0798 -0.6068
vn 0.2580 -0.0805 -0.9628
vn 0.2580 0.0805 -0.9628
vn 0.1301 -0.0798 -0.9883
vn 0.1301 0.0798 -0.9883
vn 0.2431 -0.3428 -0.9074
vn 0.1227 -0.3402 -0.9323
vn 0.2209 -0.5213 -0.8243
vn 0.1116 -0.5181 -0.8480
vn 0.0528 -0.9145 -0.4011
vn 0.1040 -0.9158 -0.3880
vn 0.0573 -0.9752 -0.2139
vn 0.0291 -0.9748 -0.2214
vn 0.1227 0.3402 -0.9323
vn 0.2431 0.3428 -0.9074
vn 0.1116 0.5181 -0.8480
vn 0.2209 0.5213 -0.8243
vn 0.1040 0.9158 -0.3880
vn 0.0528 0.9145 -0.4011
vn 0.0291 0.9748 -0.2214
vn 0.0573 0.9752 -0.2139
vn 0.4697 -0.3428 -0.8135
vn 0.4267 -0.5213 -0.7390
vn 0.2008 -0.9158 -0.3479
vn 0.1107 -0.9752 -0.1918
vn 0.4697 0.3428 -0.8135
vn 0.4267 0.5213 -0.7390
vn 0.2008 0.9158 -0.3479
vn 0.1107 0.9752 -0.1918
vn 0.6643 -0.3428 -0.6643
vn 0.6034 -0.5213 -0.6034
vn 0.2840 -0.9158 -0.2840
vn 0.1566 -0.9752 -0.1566
vn 0.6643 0.3428 -0.6643
vn 0.6034 0.5213 -0.6034
vn 0.2840 0.9158 -0.2840
vn 0.1566 0.9752 -0.1566
vn 0.8135 -0.3428 -0.4697
vn 0.7390 -0.5213 -0.4267
vn 0.3479 -0.9158 -0.2008
vn 0.1918 -0.9752 -0.1107
vn 0.8135 0.3428 -0.4697
vn 0.7390 0.5213 -0.4267
vn 0.3479 0.9158 -0.2008
vn 0.1918 0.9752 -0.1107
vn 0.9074 -0.3428 -0.2431
vn 0.8243 -0.5213 -0.2209
vn 0.3880 -0.9158 -0.1040
vn 0.2139 -0.9752 -0.0573
vn 0.9074 0.3428 -0.2431
vn 0.8243 0.5213 -0.2209
vn 0.3880 0.9158 -0.1040
vn 0.2139 0.9752 -0.0573
vn 0.9394 -0.3428 -0.0000
vn 0.8534 -0.5213 -0.0000
vn 0.4017 -0.9158 -0.0000
vn 0.2215 -0.9752 -0.0000
vn 0.9394 0.3428 -0.0000
vn 0.8534 0.5213 -0.0000
vn 0.4017 0.9158 -0.0000
vn 0.2215 0.9752 -0.0000
vn 0.9074 -0.3428 0.2431
vn 0.8243 -0.5213 0.2209
vn 0.3880 -0.9158 0.1040
vn 0.2139 -0.9752 0.0573
vn 0.9074 0.3428 0.2431
vn 0.8243 0.5213 0.2209
vn 0.3880 0.9158 0.1040
vn 0.2139 0.9752 0.0573
vn 0.8135 -0.3428 0.4697
vn 0.7390 -0.5213 0.4267
vn 0.3479 -0.9158 0.2008
vn 0.1918 -0.9752 0.1107
vn 0.8135 0.3428 0.4697
vn 0.7390 0.5213 0.4267
vn 0.3479 0.9158 0.2008
vn 0.1918 0.9752 0.1107
vn 0.6643 -0.3428 0.6643
vn 0.6034 -0.5213 0.6034
vn 0.2840 -0.9158 0.2840
vn 0.1566 -0.9752 0.1566
vn 0.6643 0.3428 0.6643
vn 0.6034 0.5213 0.6034
vn 0.2840 0.9158 0.2840
vn 0.1566 0.9752 0.1566
vn 0.4697 -0.3428 0.8135
vn 0.4267 -0.5213 0.7390
vn 0.2008 -0.9158 0.3479
vn 0.1107 -0.9752 0.1918
vn 0.4697 0.3428 0.8135
vn 0.4267 0.5213 0.7390
vn 0.2008 0.9158 0.3479
vn 0.1107 0.9752 0.1918
vn 0.2431 -0.3428 0.9074
vn 0.2209 -0.5213 0.8243
vn 0.1040 -0.9158 0.3880
vn 0.0573 -0.9752 0.2139
vn 0.2431 0.3428 0.9074
vn 0.2209 0.5213 0.8243
vn 0.1040 0.9158 0.3880
vn 0.0573 0.9752 0.2139
vn -0.0000 -0.3428 0.9394
vn -0.0000 -0.5213 0.8534
vn -0.0000 -0.9158 0.4017
vn -0.0000 -0.9752 0.2215
vn -0.0000 0.3428 0.9394
vn -0.0000 0.5213 0.8534
vn -0.0000 0.9158 0.4017
vn -0.0000 0.9752 0.2215
vn -0.2431 -0.3428 0.9074
vn -0.2209 -0.5213 0.8243
vn -0.1040 -0.9158 0.3880
vn -0.0573 -0.9752 0.2139
vn -0.2431 0.3428 0.9074
vn -0.2209 0.5213 0.8243
vn -0.1040 0.9158 0.3880
vn -0.0573 0.9752 0.2139
vn -0.4697 -0.3428 0.8135
vn -0.4267 -0.5213 0.7390
vn -0.2008 -0.9158 0.3479
vn -0.1107 -0.9752 0.1918
vn -0.4697 0.3428 0.8135
vn -0.4267 0.5213 0.7390
vn -0.2008 0.9158 0.3479
vn -0.1107 0.9752 0.1918
vn -0.6643 -0.3428 0.6643
vn -0.6034 -0.5213 0.6034
vn -0.2840 -0.9158 0.2840
vn -0.1566 -0.9752 0.1566
vn -0.6643 0.3428 0.6643
vn -0.6034 0.5213 0.6034
vn -0.2840 0.9158 0.2840
vn -0.1566 0.9752 0.1566
vn -0.8135 -0.3428 0.4697
vn -0.7390 -0.5213 0.4267
vn -0.3479 -0.9158 0.2008
vn -0.1918 -0.9752 0.1107
vn -0.8135 0.3428 0.4697
vn -0.7390 0.5213 0.4267
vn -0.3479 0.9158 0.2008
vn -0.1918 0.9752 0.1107
vn -0.9074 -0.3428 0.2431
vn -0.8243 -0.5213 0.2209
vn -0.3880 -0.9158 0.1040
vn -0.2139 -0.9752 0.0573
vn -0.9074 0.3428 0.2431
vn -0.8243 0.5213 0.2209
vn -0.3880 0.9158 0.1040
vn -0.2139 0.9752 0.0573
vn -0.9394 -0.3428 -0.0000
vn -0.8534 -0.5213 -0.0000
vn -0.4017 -0.9158 -0.0000
vn -0.2215 -0.9752 -0.0000
vn -0.9394 0.3428 -0.0000
vn -0.8534 0.5213 -0.0000
vn -0.4017 0.9158 -0.0000
vn -0.2215 0.9752 -0.0000
vn -0.9074 -0.3428 -0.2431
vn -0.8243 -0.5213 -0.2209
vn -0.3880 -0.9158 -0.1040
vn -0.2139 -0.9752 -0.0573
vn -0.9074 0.3428 -0.2431
vn -0.8243 0.5213 -0.2209
vn -0.3880 0.9158 -0.1040
vn -0.2139 0.9752 -0.0573
vn -0.8135 -0.3428 -0.4697
vn -0.7390 -0.5213 -0.4267
vn -0.3479 -0.9158 -0.2008
vn -0.1918 -0.9752 -0.1107
vn -0.8135 0.3428 -0.4697
vn -0.7390 0.5213 -0.4267
vn -0.3479 0.9158 -0.2008
vn -0.1918 0.9752 -0.1107
vn -0.7460 -0.3402 -0.5724
vn -0.6786 -0.5181 -0.5207
vn -0.3210 -0.9145 -0.2463
vn -0.1771 -0.9748 -0.1359
vn -0.7460 0.3402 -0.5724
vn -0.6786 0.5181 -0.5207
vn -0.3210 0.9145 -0.2463
vn -0.1771 0.9748 -0.1359
vn -0.0000 -1.0000 -0.0000
vn -0.0000 1.0000 -0.0000
vn 0.7071 -0.0000 -0.7071
vn -1.0000 -0.0000 -0.0000
vt 0.334722 0.433837
vt 0.334722 0.460659
vt 0.333465 0.460659
vt 0.333465 0.433837
vt 0.332500 0.460659
vt 0.332500 0.433837
vt 0.331894 0.460659
vt 0.331894 0.433837
vt 0.331687 0.460659
vt 0.331687 0.433837
vt 0.336186 0.460659
vt 0.336186 0.433837
vt 0.337757 0.460659
vt 0.337757 0.433837
vt 0.339328 0.460659
vt 0.339328 0.433837
vt 0.340791 0.460659
vt 0.340791 0.433837
vt 0.342049 0.460659
vt 0.342049 0.433837
vt 0.343013 0.460659
vt 0.343013 0.433837
vt 0.343619 0.460659
vt 0.343619 0.433837
vt 0.343826 0.460659
vt 0.343826 0.433837
vt 0.336222 0.417319
vt 0.337757 0.417319
vt 0.336323 0.405227
vt 0.337757 0.405227
vt 0.336460 0.400801
vt 0.337757 0.400801
vt 0.337757 0.477177
vt 0.336222 0.477177
vt 0.337757 0.489269
vt 0.336323 0.489269
vt 0.337757 0.493695
vt 0.336460 0.493695
vt 0.334793 0.417319
vt 0.334986 0.405227
vt 0.335251 0.400801
vt 0.334793 0.477177
vt 0.334986 0.489269
vt 0.335251 0.493695
vt 0.333565 0.417319
vt 0.333839 0.405227
vt 0.334213 0.400801
vt 0.333565 0.477177
vt 0.333839 0.489269
vt 0.334213 0.493695
vt 0.332623 0.417319
vt 0.332958 0.405227
vt 0.333416 0.400801
vt 0.332623 0.477177
vt 0.332958 0.489269
vt 0.333416 0.493695
vt 0.332031 0.417319
vt 0.332405 0.405227
vt 0.332916 0.400801
vt 0.332031 0.477177
vt 0.332405 0.489269
vt 0.332916 0.493695
vt 0.331829 0.417319
vt 0.332216 0.405227
vt 0.332745 0.400801
vt 0.331829 0.477177
vt 0.332216 0.489269
vt 0.332745 0.493695
vt 0.332623 0.417319
vt 0.333416 0.400801
vt 0.333565 0.417319
vt 0.334213 0.400801
vt 0.334793 0.417319
vt 0.335251 0.400801
vt 0.336222 0.417319
vt 0.336460 0.400801
vt 0.337757 0.417319
vt 0.337757 0.400801
vt 0.339291 0.417319
vt 0.339191 0.405227
vt 0.339054 0.400801
vt 0.339291 0.477177
vt 0.339191 0.489269
vt 0.339054 0.493695
vt 0.340721 0.417319
vt 0.340527 0.405227
vt 0.340263 0.400801
vt 0.340721 0.477177
vt 0.340527 0.489269
vt 0.340263 0.493695
vt 0.341948 0.417319
vt 0.341675 0.405227
vt 0.341301 0.400801
vt 0.341948 0.477177
vt 0.341675 0.489269
vt 0.341301 0.493695
vt 0.342890 0.417319
vt 0.342555 0.405227
vt 0.342097 0.400801
vt 0.342890 0.477177
vt 0.342555 0.489269
vt 0.342097 0.493695
vt 0.343483 0.417319
vt 0.343109 0.405227
vt 0.342598 0.400801
vt 0.343483 0.477177
vt 0.343109 0.489269
vt 0.342598 0.493695
vt 0.343685 0.417319
vt 0.343297 0.405227
vt 0.342768 0.400801
vt 0.343685 0.477177
vt 0.343297 0.489269
vt 0.342768 0.493695
vt 0.342890 0.417319
vt 0.342097 0.400801
vt 0.341948 0.417319
vt 0.341301 0.400801
vt 0.094354 0.279581
vt 0.108728 0.279581
vt 0.108728 0.470385
vt 0.094354 0.470385
vt 0.094354 0.279581
vt 0.094354 0.470384
vt 0.094354 0.285752
vt 0.094354 0.464213
vt 0.094354 0.307957
vt 0.094354 0.442008
vt 0.094354 0.343955
vt 0.094354 0.406011
vt 0.109635 0.464213
vt 0.109635 0.285752
vt 0.110509 0.442008
vt 0.110509 0.307957
vt 0.110889 0.406010
vt 0.110889 0.343955
vt 0.337757 0.419166
vt 0.337757 0.434248
vt 0.337757 0.409863
vt 0.337757 0.407277
vt 0.337757 0.460248
vt 0.337757 0.475330
vt 0.337757 0.484634
vt 0.337757 0.487219
vt 0.341740 0.434248
vt 0.341649 0.419166
vt 0.341438 0.409863
vt 0.341220 0.407277
vt 0.341649 0.475330
vt 0.341740 0.460248
vt 0.341438 0.484634
vt 0.341220 0.487219
vt 0.337757 0.407277
s 1
usemtl Material
f 15/1/1 18/2/2 24/3/3 21/4/4
f 21/4/4 24/3/3 30/5/5 27/6/6
f 27/6/6 30/5/5 36/7/7 33/8/8
f 33/8/8 36/7/7 42/9/9 39/10/10
f 39/10/10 42/9/9 48/7/11 45/8/12
f 45/8/12 48/7/11 54/5/13 51/6/14
f 51/6/14 54/5/13 60/3/15 57/4/16
f 57/4/16 60/3/15 66/2/17 63/1/18
f 63/1/18 66/2/17 72/11/19 69/12/20
f 69/12/20 72/11/19 78/13/21 75/14/22
f 75/14/22 78/13/21 84/15/23 81/16/24
f 81/16/24 84/15/23 90/17/25 87/18/26
f 87/18/26 90/17/25 96/19/27 93/20/28
f 93/20/28 96/19/27 102/21/29 99/22/30
f 99/22/30 102/21/29 108/23/31 105/24/32
f 105/24/32 108/23/31 114/25/33 111/26/34
f 111/26/34 114/25/33 120/23/35 117/24/36
f 117/24/36 120/23/35 126/21/37 123/22/38
f 123/22/38 126/21/37 192/19/39 187/20/40
f 9/12/41 12/11/42 18/2/2 15/1/1
f 180/14/43 183/13/44 12/11/42 9/12/41
f 180/14/43 9/12/41 11/27/45 179/28/46
f 179/28/46 11/27/45 10/29/47 181/30/48
f 181/30/49 10/29/50 135/31/51 182/32/52
f 12/11/42 183/13/44 184/33/53 14/34/54
f 14/34/54 184/33/53 185/35/55 13/36/56
f 13/36/57 185/35/58 186/37/59 138/38/60
f 9/12/41 15/1/1 17/39/61 11/27/45
f 11/27/45 17/39/61 16/40/62 10/29/47
f 10/29/50 16/40/63 139/41/64 135/31/51
f 18/2/2 12/11/42 14/34/54 20/42/65
f 20/42/65 14/34/54 13/36/56 19/43/66
f 19/43/67 13/36/57 138/38/60 140/44/68
f 15/1/1 21/4/4 23/45/69 17/39/61
f 17/39/61 23/45/69 22/46/70 16/40/62
f 16/40/63 22/46/71 141/47/72 139/41/64
f 24/3/3 18/2/2 20/42/65 26/48/73
f 26/48/73 20/42/65 19/43/66 25/49/74
f 25/49/75 19/43/67 140/44/68 142/50/76
f 21/4/4 27/6/6 29/51/77 23/45/69
f 23/45/69 29/51/77 28/52/78 22/46/70
f 22/46/71 28/52/79 143/53/80 141/47/72
f 30/5/5 24/3/3 26/48/73 32/54/81
f 32/54/81 26/48/73 25/49/74 31/55/82
f 31/55/83 25/49/75 142/50/76 144/56/84
f 27/6/6 33/8/8 35/57/85 29/51/77
f 29/51/77 35/57/85 34/58/86 28/52/78
f 28/52/79 34/58/87 145/59/88 143/53/80
f 36/7/7 30/5/5 32/54/81 38/60/89
f 38/60/89 32/54/81 31/55/82 37/61/90
f 37/61/91 31/55/83 144/56/84 146/62/92
f 33/8/8 39/10/10 41/63/93 35/57/85
f 35/57/85 41/63/93 40/64/94 34/58/86
f 34/58/87 40/64/95 147/65/96 145/59/88
f 42/9/9 36/7/7 38/60/89 44/66/97
f 44/66/97 38/60/89 37/61/90 43/67/98
f 43/67/99 37/61/91 146/62/92 148/68/100
f 39/10/10 45/8/12 47/57/101 41/63/93
f 41/63/93 47/57/101 46/58/102 40/64/94
f 40/64/95 46/58/103 149/59/104 147/65/96
f 48/7/11 42/9/9 44/66/97 50/60/105
f 50/60/105 44/66/97 43/67/98 49/61/106
f 49/61/107 43/67/99 148/68/100 150/62/108
f 45/8/12 51/6/14 53/69/109 47/57/101
f 47/57/101 53/69/109 52/52/110 46/58/102
f 46/58/103 52/52/111 151/70/112 149/59/104
f 54/5/13 48/7/11 50/60/105 56/54/113
f 56/54/113 50/60/105 49/61/106 55/55/114
f 55/55/115 49/61/107 150/62/108 152/56/116
f 51/6/14 57/4/16 59/71/117 53/69/109
f 53/69/109 59/71/117 58/46/118 52/52/110
f 52/52/111 58/46/119 153/72/120 151/70/112
f 60/3/15 54/5/13 56/54/113 62/48/121
f 62/48/121 56/54/113 55/55/114 61/49/122
f 61/49/123 55/55/115 152/56/116 154/50/124
f 57/4/16 63/1/18 65/73/125 59/71/117
f 59/71/117 65/73/125 64/40/126 58/46/118
f 58/46/119 64/40/127 155/74/128 153/72/120
f 66/2/17 60/3/15 62/48/121 68/42/129
f 68/42/129 62/48/121 61/49/122 67/43/130
f 67/43/131 61/49/123 154/50/124 156/44/132
f 63/1/18 69/12/20 71/75/133 65/73/125
f 65/73/125 71/75/133 70/29/134 64/40/126
f 64/40/127 70/29/135 157/76/136 155/74/128
f 72/11/19 66/2/17 68/42/129 74/34/137
f 74/34/137 68/42/129 67/43/130 73/36/138
f 73/36/139 67/43/131 156/44/132 158/38/140
f 69/12/20 75/14/22 77/77/141 71/75/133
f 71/75/133 77/77/141 76/30/142 70/29/134
f 70/29/135 76/30/143 159/78/144 157/76/136
f 78/13/21 72/11/19 74/34/137 80/33/145
f 80/33/145 74/34/137 73/36/138 79/35/146
f 79/35/147 73/36/139 158/38/140 160/37/148
f 75/14/22 81/16/24 83/79/149 77/77/141
f 77/77/141 83/79/149 82/80/150 76/30/142
f 76/30/143 82/80/151 161/81/152 159/78/144
f 84/15/23 78/13/21 80/33/145 86/82/153
f 86/82/153 80/33/145 79/35/146 85/83/154
f 85/83/155 79/35/147 160/37/148 162/84/156
f 81/16/24 87/18/26 89/85/157 83/79/149
f 83/79/149 89/85/157 88/86/158 82/80/150
f 82/80/151 88/86/159 163/87/160 161/81/152
f 90/17/25 84/15/23 86/82/153 92/88/161
f 92/88/161 86/82/153 85/83/154 91/89/162
f 91/89/163 85/83/155 162/84/156 164/90/164
f 87/18/26 93/20/28 95/91/165 89/85/157
f 89/85/157 95/91/165 94/92/166 88/86/158
f 88/86/159 94/92/167 165/93/168 163/87/160
f 96/19/27 90/17/25 92/88/161 98/94/169
f 98/94/169 92/88/161 91/89/162 97/95/170
f 97/95/171 91/89/163 164/90/164 166/96/172
f 93/20/28 99/22/30 101/97/173 95/91/165
f 95/91/165 101/97/173 100/98/174 94/92/166
f 94/92/167 100/98/175 167/99/176 165/93/168
f 102/21/29 96/19/27 98/94/169 104/100/177
f 104/100/177 98/94/169 97/95/170 103/101/178
f 103/101/179 97/95/171 166/96/172 168/102/180
f 99/22/30 105/24/32 107/103/181 101/97/173
f 101/97/173 107/103/181 106/104/182 100/98/174
f 100/98/175 106/104/183 169/105/184 167/99/176
f 108/23/31 102/21/29 104/100/177 110/106/185
f 110/106/185 104/100/177 103/101/178 109/107/186
f 109/107/187 103/101/179 168/102/180 170/108/188
f 105/24/32 111/26/34 113/109/189 107/103/181
f 107/103/181 113/109/189 112/110/190 106/104/182
f 106/104/183 112/110/191 171/111/192 169/105/184
f 114/25/33 108/23/31 110/106/185 116/112/193
f 116/112/193 110/106/185 109/107/186 115/113/194
f 115/113/195 109/107/187 170/108/188 172/114/196
f 111/26/34 117/24/36 119/103/197 113/109/189
f 113/109/189 119/103/197 118/104/198 112/110/190
f 112/110/191 118/104/199 173/105/200 171/111/192
f 120/23/35 114/25/33 116/112/193 122/106/201
f 122/106/201 116/112/193 115/113/194 121/107/202
f 121/107/203 115/113/195 172/114/196 174/108/204
f 117/24/36 123/22/38 125/115/205 119/103/197
f 119/103/197 125/115/205 124/98/206 118/104/198
f 118/104/199 124/98/207 175/116/208 173/105/200
f 126/21/37 120/23/35 122/106/201 128/100/209
f 128/100/209 122/106/201 121/107/202 127/101/210
f 127/101/211 121/107/203 174/108/204 176/102/212
f 123/22/38 187/20/40 188/117/213 125/115/205
f 125/115/205 188/117/213 189/92/214 124/98/206
f 124/98/207 189/92/215 190/118/216 175/116/208
f 192/19/39 126/21/37 128/100/209 191/94/217
f 191/94/217 128/100/209 127/101/210 193/95/218
f 193/95/219 127/101/211 176/102/212 194/96/220
f 195/32/221 182/32/52 135/31/51
f 196/37/222 138/38/60 186/37/59
f 195/32/221 135/31/51 139/41/64
f 196/37/222 140/44/68 138/38/60
f 195/32/221 139/41/64 141/47/72
f 196/37/222 142/50/76 140/44/68
f 195/32/221 141/47/72 143/53/80
f 196/37/222 144/56/84 142/50/76
f 195/32/221 143/53/80 145/59/88
f 196/37/222 146/62/92 144/56/84
f 195/32/221 145/59/88 147/65/96
f 196/37/222 148/68/100 146/62/92
f 195/32/221 147/65/96 149/59/104
f 196/37/222 150/62/108 148/68/100
f 195/32/221 149/59/104 151/70/112
f 196/37/222 152/56/116 150/62/108
f 195/32/221 151/70/112 153/72/120
f 196/37/222 154/50/124 152/56/116
f 195/32/221 153/72/120 155/74/128
f 196/37/222 156/44/132 154/50/124
f 195/32/221 155/74/128 157/76/136
f 196/37/222 158/38/140 156/44/132
f 195/32/221 157/76/136 159/78/144
f 196/37/222 160/37/148 158/38/140
f 195/32/221 159/78/144 161/81/152
f 196/37/222 162/84/156 160/37/148
f 195/32/221 161/81/152 163/87/160
f 196/37/222 164/90/164 162/84/156
f 195/32/221 163/87/160 165/93/168
f 196/37/222 166/96/172 164/90/164
f 195/32/221 165/93/168 167/99/176
f 196/37/222 168/102/180 166/96/172
f 195/32/221 167/99/176 169/105/184
f 196/37/222 170/108/188 168/102/180
f 195/32/221 169/105/184 171/111/192
f 196/37/222 172/114/196 170/108/188
f 195/32/221 171/111/192 173/105/200
f 196/37/222 174/108/204 172/114/196
f 195/32/221 173/105/200 175/116/208
f 196/37/222 176/102/212 174/108/204
f 195/32/221 175/116/208 190/118/216
f 196/37/222 194/96/220 176/102/212
f 1/119/223 177/120/223 178/121/223 5/122/223
f 136/123/224 1/119/224 5/122/224 137/124/224
f 3/125/224 136/123/224 137/124/224 7/126/224
f 4/127/224 3/125/224 7/126/224 8/128/224
f 2/129/224 4/127/224 8/128/224 6/130/224
f 133/131/223 178/121/223 177/120/223 130/132/223
f 134/133/223 133/131/223 130/132/223 131/134/223
f 132/135/223 134/133/223 131/134/223 129/136/223
f 4/137/224 2/138/224 180/14/224 179/28/224
f 3/139/224 4/137/224 179/28/224 181/30/224
f 136/140/224 3/139/224 181/30/224 182/32/224
f 6/141/224 8/142/224 184/33/224 183/13/224
f 8/142/224 7/143/224 185/35/224 184/33/224
f 7/143/224 137/144/224 186/37/224 185/35/224
f 129/145/223 131/146/223 188/117/223 187/20/223
f 131/146/223 130/147/223 189/92/223 188/117/223
f 130/147/223 177/148/223 190/118/223 189/92/223
f 134/149/223 132/150/223 192/19/223 191/94/223
f 133/151/223 134/149/223 191/94/223 193/95/223
f 178/152/223 133/151/223 193/95/223 194/96/223
f 2/138/224 6/141/224 183/13/224 180/14/224
f 132/150/223 129/145/223 187/20/223 192/19/223
f 1/153/224 136/140/224 182/32/224 195/32/224
f 137/144/224 5/144/224 196/37/224 186/37/224
f 177/148/223 1/153/223 195/32/223 190/118/223
f 5/144/223 178/152/223 194/96/223 196/37/223
