# Blender 4.0.2
# www.blender.org
mtllib HamWorld.mtl
o HamWorld
v 0.038224 0.051678 -0.110740
v -0.050305 0.044852 -0.110740
v -0.028268 0.051678 -0.110740
v -0.060348 0.026747 -0.110740
v 0.065895 0.026747 -0.110740
v 0.058438 0.044852 -0.110740
v -0.060436 -0.046202 -0.110740
v -0.076823 -0.034084 -0.110740
v -0.072320 -0.042196 -0.110740
v 0.069378 -0.034084 -0.110740
v 0.052117 -0.046202 -0.110740
v 0.064026 -0.042196 -0.110740
v -0.070066 -0.040662 -0.110740
v -0.059768 -0.044120 -0.110740
v -0.027696 0.048799 -0.110740
v -0.047984 0.042398 -0.110740
v 0.037652 0.048799 -0.110740
v 0.062113 -0.040662 -0.110740
v 0.066533 -0.034030 -0.110740
v 0.051786 -0.044120 -0.110740
v 0.063256 0.025627 -0.110740
v 0.056352 0.042398 -0.110740
v -0.057368 0.025627 -0.110740
v -0.073751 -0.034030 -0.110740
v -0.070066 -0.040662 0.110740
v -0.059768 -0.044120 0.110740
v -0.027696 0.048799 0.110740
v -0.047984 0.042398 0.110740
v 0.037652 0.048799 0.110740
v 0.062113 -0.040662 0.110740
v 0.066533 -0.034030 0.110740
v 0.051786 -0.044120 0.110740
v 0.063256 0.025627 0.110740
v 0.056352 0.042398 0.110740
v -0.057368 0.025627 0.110740
v -0.073751 -0.034030 0.110740
v -0.072320 -0.042196 0.110740
v -0.060436 -0.046202 0.110740
v -0.028268 0.051678 0.110740
v -0.050305 0.044852 0.110740
v 0.038224 0.051678 0.110740
v 0.064026 -0.042196 0.110740
v 0.069378 -0.034084 0.110740
v 0.052117 -0.046202 0.110740
v 0.065895 0.026747 0.110740
v 0.058438 0.044852 0.110740
v -0.060348 0.026747 0.110740
v -0.076823 -0.034084 0.110740
v 0.058438 0.044852 -0.055370
v 0.058438 0.044852 -0.000000
v 0.058438 0.044852 0.055370
v 0.038224 0.051678 0.055370
v 0.038224 0.051678 -0.000000
v 0.038224 0.051678 -0.055370
v 0.052117 -0.046202 -0.055370
v 0.052117 -0.046202 -0.000000
v 0.052117 -0.046202 0.055370
v 0.064026 -0.042196 0.055370
v 0.064026 -0.042196 -0.000000
v 0.064026 -0.042196 -0.055370
v 0.069378 -0.034084 -0.055370
v 0.069378 -0.034084 -0.000000
v 0.069378 -0.034084 0.055370
v 0.065895 0.026747 0.055370
v 0.065895 0.026747 -0.000000
v 0.065895 0.026747 -0.055370
v -0.028268 0.051678 -0.055370
v -0.028268 0.051678 -0.000000
v -0.028268 0.051678 0.055370
v -0.050305 0.044852 0.055370
v -0.050305 0.044852 -0.000000
v -0.050305 0.044852 -0.055370
v -0.076823 -0.034084 -0.055370
v -0.076823 -0.034084 -0.000000
v -0.076823 -0.034084 0.055370
v -0.072320 -0.042196 0.055370
v -0.072320 -0.042196 -0.000000
v -0.072320 -0.042196 -0.055370
v -0.060436 -0.046202 -0.055370
v -0.060436 -0.046202 -0.000000
v -0.060436 -0.046202 0.055370
v -0.060348 0.026747 0.055370
v -0.060348 0.026747 -0.000000
v -0.060348 0.026747 -0.055370
vn -0.0000 -0.0000 -1.0000
vn -0.0000 -0.0000 1.0000
vn 0.1621 0.9868 -0.0000
vn 0.6837 0.7297 -0.0000
vn 0.6100 -0.7924 -0.0000
vn 0.1615 -0.9869 -0.0000
vn 0.9750 0.2221 -0.0000
vn 0.9656 -0.2600 -0.0000
vn -0.6306 0.7761 -0.0000
vn -0.1496 0.9887 -0.0000
vn -0.6401 -0.7683 -0.0000
vn -0.9927 -0.1208 -0.0000
vn -0.1618 -0.9868 -0.0000
vn -0.9266 0.3760 -0.0000
vt 0.746228 0.108593
vt 0.743952 0.132079
vt 0.734536 0.137914
vt 0.705150 0.137888
vt 0.695890 0.132010
vt 0.693367 0.108638
vt 0.692738 0.022391
vt 0.694322 0.012947
vt 0.698384 0.009062
vt 0.740779 0.009033
vt 0.744921 0.012950
vt 0.746668 0.022356
vt 0.606071 0.016311
vt 0.603000 0.013280
vt 0.603053 0.008352
vt 0.606733 0.010951
vt 0.598663 0.234250
vt 0.605459 0.228107
vt 0.606313 0.233597
vt 0.598745 0.238925
vt 0.580162 0.234250
vt 0.580080 0.238925
vt 0.572754 0.016311
vt 0.572317 0.035387
vt 0.571694 0.034886
vt 0.572092 0.010951
vt 0.575825 0.013280
vt 0.575772 0.008352
vt 0.572441 0.183571
vt 0.573366 0.228107
vt 0.572513 0.233597
vt 0.571694 0.184360
vt 0.606384 0.183571
vt 0.607131 0.184360
vt 0.606508 0.035387
vt 0.607131 0.034886
vt 0.606733 0.010951
vt 0.572092 0.010951
vt 0.606313 0.233597
vt 0.580080 0.238925
vt 0.572513 0.233597
s 1
usemtl Material
f 23/1/1 16/2/1 15/3/1 17/4/1 22/5/1 21/6/1 19/7/1 18/8/1 20/9/1 14/10/1 13/11/1 24/12/1
f 13/13/1 14/14/1 7/15/1 9/16/1
f 15/17/1 16/18/1 2/19/1 3/20/1
f 17/21/1 15/17/1 3/20/1 1/22/1
f 18/23/1 19/24/1 10/25/1 12/26/1
f 20/27/1 18/23/1 12/26/1 11/28/1
f 21/29/1 22/30/1 6/31/1 5/32/1
f 16/18/1 23/33/1 4/34/1 2/19/1
f 22/30/1 17/21/1 1/22/1 6/31/1
f 24/35/1 13/13/1 9/16/1 8/36/1
f 14/14/1 20/27/1 11/28/1 7/15/1
f 23/33/1 24/35/1 8/36/1 4/34/1
f 19/24/1 21/29/1 5/32/1 10/25/1
f 35/1/2 36/12/2 25/11/2 26/10/2 32/9/2 30/8/2 31/7/2 33/6/2 34/5/2 29/4/2 27/3/2 28/2/2
f 25/13/2 37/16/2 38/15/2 26/14/2
f 27/17/2 39/20/2 40/19/2 28/18/2
f 29/21/2 41/22/2 39/20/2 27/17/2
f 30/23/2 42/26/2 43/25/2 31/24/2
f 32/27/2 44/28/2 42/26/2 30/23/2
f 33/29/2 45/32/2 46/31/2 34/30/2
f 28/18/2 40/19/2 47/34/2 35/33/2
f 34/30/2 46/31/2 41/22/2 29/21/2
f 36/35/2 48/36/2 37/16/2 25/13/2
f 26/14/2 38/15/2 44/28/2 32/27/2
f 35/33/2 47/34/2 48/36/2 36/35/2
f 31/24/2 43/25/2 45/32/2 33/29/2
f 52/22/3 41/22/3 46/31/4 51/31/4
f 58/26/5 42/26/5 44/28/6 57/28/6
f 64/32/7 45/32/7 43/25/8 63/25/8
f 70/19/9 40/19/9 39/20/10 69/20/10
f 76/16/11 37/16/11 48/36/12 75/36/12
f 51/31/4 46/31/4 45/32/7 64/32/7
f 69/20/10 39/20/10 41/22/3 52/22/3
f 57/28/6 44/28/6 38/15/13 81/15/13
f 82/34/14 47/34/14 40/19/9 70/19/9
f 63/25/8 43/25/8 42/26/5 58/26/5
f 75/36/12 48/36/12 47/34/14 82/34/14
f 81/15/13 38/15/13 37/16/11 76/16/11
f 7/15/13 79/15/13 78/37/11 9/16/11
f 79/15/13 80/15/13 77/37/11 78/37/11
f 80/15/13 81/15/13 76/16/11 77/37/11
f 8/36/12 73/36/12 84/34/14 4/34/14
f 73/36/12 74/36/12 83/34/14 84/34/14
f 74/36/12 75/36/12 82/34/14 83/34/14
f 10/25/8 61/25/8 60/38/5 12/26/5
f 61/25/8 62/25/8 59/38/5 60/38/5
f 62/25/8 63/25/8 58/26/5 59/38/5
f 4/34/14 84/34/14 72/19/9 2/19/9
f 84/34/14 83/34/14 71/39/9 72/19/9
f 83/34/14 82/34/14 70/19/9 71/39/9
f 11/28/6 55/28/6 79/15/13 7/15/13
f 55/28/6 56/28/6 80/15/13 79/15/13
f 56/28/6 57/28/6 81/15/13 80/15/13
f 3/20/10 67/20/10 54/40/3 1/22/3
f 67/20/10 68/20/10 53/40/3 54/40/3
f 68/20/10 69/20/10 52/22/3 53/40/3
f 6/31/4 49/31/4 66/32/7 5/32/7
f 49/31/4 50/41/4 65/32/7 66/32/7
f 50/41/4 51/31/4 64/32/7 65/32/7
f 9/16/11 78/37/11 73/36/12 8/36/12
f 78/37/11 77/37/11 74/36/12 73/36/12
f 77/37/11 76/16/11 75/36/12 74/36/12
f 2/19/9 72/19/9 67/20/10 3/20/10
f 72/19/9 71/39/9 68/20/10 67/20/10
f 71/39/9 70/19/9 69/20/10 68/20/10
f 5/32/7 66/32/7 61/25/8 10/25/8
f 66/32/7 65/32/7 62/25/8 61/25/8
f 65/32/7 64/32/7 63/25/8 62/25/8
f 12/26/5 60/38/5 55/28/6 11/28/6
f 60/38/5 59/38/5 56/28/6 55/28/6
f 59/38/5 58/26/5 57/28/6 56/28/6
f 1/22/3 54/40/3 49/31/4 6/31/4
f 54/40/3 53/40/3 50/41/4 49/31/4
f 53/40/3 52/22/3 51/31/4 50/41/4
